<svg width="50" height="50" viewBox="0 0 50 50" fill="none" xmlns="http://www.w3.org/2000/svg">
<rect width="50" height="50" rx="25" fill="#474747"/>
<path d="M22.566 35.9982C22.5623 35.9132 22.5548 35.8281 22.5548 35.7413C22.5548 32.5623 22.553 29.385 22.5585 26.206C22.5585 26.0075 22.5046 25.9579 22.2981 25.9597C21.2694 25.9703 20.2389 25.9614 19.2103 25.9685C19.0428 25.9703 18.9982 25.9331 19.0001 25.7683C19.0094 24.5952 19.0094 23.4203 19.0001 22.2473C18.9982 22.0807 19.0484 22.047 19.214 22.0488C20.2575 22.0559 21.3029 22.0488 22.3465 22.0559C22.5176 22.0577 22.5585 22.0134 22.5585 21.8521C22.5548 20.8208 22.5362 19.7895 22.5734 18.7599C22.6199 17.5053 23.0013 16.3553 23.9332 15.4196C24.627 14.7215 25.4957 14.3281 26.4723 14.1314C27.2889 13.9666 28.1167 13.9914 28.9408 14.0233C29.5565 14.0463 30.1703 14.1012 30.7842 14.1331C30.9386 14.142 31.0018 14.1721 31 14.3422C30.9907 15.3877 30.9907 16.4332 31 17.477C31.0018 17.6364 30.946 17.6559 30.7972 17.6577C29.9787 17.6666 29.1602 17.6223 28.3418 17.6861C27.3764 17.7623 26.8369 18.2673 26.809 19.187C26.7811 20.096 26.7997 21.0051 26.7885 21.9141C26.7867 22.0825 26.8909 22.0523 26.9913 22.0523C28.193 22.0523 29.3965 22.0559 30.5982 22.0488C30.7804 22.047 30.8586 22.0594 30.827 22.2738C30.6577 23.4345 30.507 24.5988 30.3545 25.763C30.334 25.9154 30.2819 25.9703 30.1071 25.9703C29.071 25.9614 28.033 25.9685 26.9969 25.9632C26.8518 25.9632 26.7885 25.9809 26.7885 26.144C26.7941 29.3939 26.7923 32.6438 26.7923 35.8937C26.7923 35.9291 26.7997 35.9646 26.8034 36C25.3934 35.9982 23.9797 35.9982 22.566 35.9982Z" fill="white"/>
</svg>
