<svg width="50" height="50" viewBox="0 0 50 50" fill="none" xmlns="http://www.w3.org/2000/svg">
<rect width="50" height="50" rx="25" fill="#474747"/>
<path fill-rule="evenodd" clip-rule="evenodd" d="M21.1511 14H22.0117C22.0376 14.0111 22.0636 14.0198 22.0898 14.0266H22.6629H22.6634H23.9928C23.9899 14.0297 23.987 14.0325 23.984 14.0352C24.0015 14.0279 24.0183 14.0168 24.0341 14.0004H25.9707C26.0227 14.0106 26.0746 14.0194 26.1265 14.0266H26.8908C26.9427 14.0194 26.9945 14.0106 27.0464 14.0004H28.079C28.0913 14.0106 28.1036 14.0194 28.1159 14.0266H28.2386C28.2308 14.0344 28.223 14.0411 28.2152 14.0469C28.2415 14.0414 28.2678 14.0265 28.2941 14.0004H28.7675C28.8097 14.0612 28.8675 14.0533 28.9231 14.0457C28.9435 14.0429 28.9636 14.0402 28.9826 14.0409C29.7776 14.0736 30.5722 14.1115 31.3491 14.3025C33.3094 14.7854 34.7115 15.928 35.4681 17.8139C35.8906 18.8661 35.9902 19.9777 35.9941 21.0975C36.0023 23.6384 36.0018 26.1792 35.9936 28.7197C35.9911 29.5137 35.9488 30.3077 35.7811 31.0879C35.3517 33.0874 34.245 34.5506 32.3437 35.3696C31.3129 35.8137 30.2152 35.9127 29.1081 35.9485C26.7782 36.0229 24.448 36.0014 22.1186 35.9781L21.9778 35.9768C20.8801 35.9661 19.778 35.9553 18.6984 35.6937C16.8778 35.2526 15.5249 34.2231 14.7183 32.5223C14.2315 31.4955 14.0884 30.3908 14.0556 29.2688C14.0383 28.681 14.027 28.0933 14.0157 27.5055C14.0107 27.242 14.0056 26.9785 14 26.715V23.2773C14.0053 23.0331 14.0101 22.7889 14.0149 22.5448C14.0258 21.995 14.0366 21.4452 14.053 20.8957C14.0772 20.087 14.1371 19.2818 14.3535 18.4973C14.8674 16.6351 15.9957 15.3083 17.8008 14.5797C18.8062 14.1739 19.8664 14.0766 20.9369 14.0413C20.9553 14.041 20.9748 14.0439 20.9946 14.0468C21.0509 14.055 21.1094 14.0637 21.1511 14ZM25.024 34.0157C25.2046 34.0157 25.3853 34.0163 25.566 34.0169C25.9662 34.0182 26.3665 34.0194 26.7666 34.0144C27.0097 34.0113 27.2531 34.0104 27.4964 34.0095H27.497C28.5088 34.0059 29.5212 34.0022 30.523 33.8405C32.2088 33.5681 33.3297 32.6286 33.7841 30.9575C33.9712 30.2685 33.9941 29.5589 34.016 28.8509C34.0837 26.6393 34.0669 24.4272 34.0419 22.2152C34.032 21.3286 34.0208 20.4408 33.8919 19.559C33.6405 17.8384 32.5765 16.6476 30.908 16.2452C30.1349 16.0587 29.3442 16.0428 28.5563 16.027L28.4933 16.0257C26.5644 15.9866 24.6355 15.99 22.7062 16.0098C22.5384 16.0115 22.3705 16.0122 22.2026 16.0129H22.2025C21.2662 16.0169 20.3287 16.0209 19.4042 16.1957C17.7582 16.5069 16.6821 17.4549 16.26 19.0955C16.0752 19.8139 16.0555 20.5511 16.0358 21.2866L16.0328 21.3971C15.9845 23.165 15.9871 24.9333 16.0039 26.7017C16.0058 26.9083 16.0066 27.115 16.0074 27.3218C16.0114 28.3532 16.0154 29.3855 16.1613 30.4101C16.3277 31.5803 16.8317 32.5632 17.8457 33.2273C18.5786 33.7071 19.412 33.875 20.2712 33.9313C21.6093 34.019 22.9493 34.0175 24.2893 34.016C24.5342 34.0157 24.7791 34.0154 25.024 34.0157ZM24.9884 30.6288C21.8715 30.6073 19.3536 28.0772 19.3712 24.9854C19.3892 21.8704 21.9187 19.354 25.0146 19.3712C28.1332 19.3888 30.6464 21.9137 30.6288 25.0116C30.6112 28.1287 28.0792 30.6502 24.9884 30.6288ZM24.9949 28.6454C27.0136 28.6484 28.6388 27.0343 28.6486 25.0158C28.6585 22.9905 27.0346 21.3554 25.0081 21.3511C22.9834 21.3468 21.3527 22.9763 21.3544 25.0026C21.3565 27.0193 22.9778 28.6424 24.9949 28.6454ZM32.2188 19.112C32.2183 18.3674 31.6282 17.7791 30.8826 17.7813C30.1413 17.7834 29.5508 18.38 29.5547 19.1229C29.5586 19.8496 30.1548 20.4431 30.8826 20.4453C31.6247 20.4471 32.2192 19.8544 32.2188 19.112Z" fill="white"/>
</svg>
