<svg width="50" height="50" viewBox="0 0 50 50" fill="none" xmlns="http://www.w3.org/2000/svg">
<rect width="50" height="50" rx="25" fill="#474747"/>
<path fill-rule="evenodd" clip-rule="evenodd" d="M16.9735 19.0517C18.126 18.8756 18.9506 17.8432 18.9509 16.5657C18.9512 15.3932 18.3048 14.4379 17.2908 14.1243C16.7802 13.966 16.2619 13.9574 15.7504 14.1071C14.8854 14.3604 14.2782 14.9416 14.0743 15.9294C13.8694 16.9211 14.081 17.8085 14.8009 18.4798C15.4322 19.0685 16.1814 19.1725 16.9735 19.0517ZM26.178 23.3117C26.8096 22.5014 27.5092 21.8869 28.326 21.4089C30.4646 20.158 34.2836 20.7937 35.4934 24.2924C35.8566 25.3428 35.9923 26.4263 35.9941 27.532C35.9961 28.7876 35.9962 30.0431 35.9963 31.2987C35.9965 32.7869 35.9966 34.2751 36 35.7635C36.0003 35.9532 35.9518 35.9999 35.7701 35.9989C34.3297 35.991 32.889 35.9902 31.4486 35.9996C31.257 36.0007 31.2068 35.9557 31.2071 35.7545C31.213 33.7379 31.2126 31.7216 31.2122 29.7051V29.7051L31.212 28.1933C31.212 27.6337 31.1733 27.0789 31.0306 26.5355C30.5522 24.7147 28.5096 24.0844 27.1327 25.3407C26.5256 25.8944 26.1833 26.5851 26.184 27.4382C26.1846 28.1127 26.1827 28.7872 26.1808 29.4617V29.4619C26.1795 29.9438 26.1781 30.4258 26.1777 30.9078L26.1773 31.3497V31.3498C26.1759 32.8217 26.1746 34.2934 26.1819 35.7653C26.1829 35.9579 26.1281 36.0003 25.9491 35.9992C24.5088 35.9917 23.068 35.9924 21.6277 35.9985C21.4584 35.9992 21.3911 35.9737 21.3914 35.7714C21.3977 30.9779 21.3974 26.1841 21.3925 21.3906C21.3921 21.212 21.4337 21.1649 21.6095 21.166C23.0576 21.1739 24.506 21.1746 25.954 21.1657C26.1431 21.1646 26.1847 21.2224 26.1815 21.4061C26.1743 21.8402 26.1756 22.2751 26.1769 22.7349V22.7353C26.1775 22.9227 26.178 23.1144 26.178 23.3117ZM14.1088 28.5903L14.1089 27.1611C14.1093 25.2556 14.1096 23.3499 14.1046 21.4445C14.1043 21.2489 14.13 21.1756 14.3484 21.1774C15.784 21.19 17.2199 21.1878 18.6557 21.1789C18.845 21.1778 18.8811 21.2367 18.8811 21.4187C18.8763 26.1984 18.8766 30.9786 18.8811 35.7583C18.8811 35.9378 18.8491 36.0006 18.6575 35.9996C17.2139 35.9902 15.7704 35.9902 14.3269 35.9996C14.1359 36.0006 14.1049 35.9375 14.1053 35.7598C14.1095 33.8478 14.1092 31.9356 14.1089 30.0235L14.1088 28.5903Z" fill="white"/>
</svg>
