<svg width="50" height="50" viewBox="0 0 50 50" fill="none" xmlns="http://www.w3.org/2000/svg">
<rect width="50" height="50" rx="25" fill="#474747"/>
<path d="M20.6028 30.0949C18.5199 29.9148 17.1304 28.8719 16.3577 26.927C17.0425 27.029 17.686 27.0301 18.3319 26.8472C17.3066 26.5735 16.4404 26.0545 15.7768 25.225C15.1101 24.3916 14.7866 23.4369 14.7751 22.3378C15.4113 22.6528 16.0516 22.871 16.8105 22.8863C15.8206 22.1667 15.1841 21.263 14.9287 20.1184C14.6726 18.9704 14.8412 17.88 15.4269 16.8409C17.8952 19.7396 21.0058 21.3219 24.8096 21.5877C24.647 20.7769 24.6585 20.0039 24.8874 19.2362C25.8557 15.9882 29.9722 14.9113 32.405 17.275C32.5211 17.3877 32.6145 17.4339 32.7844 17.3912C33.2469 17.275 33.7031 17.1428 34.1474 16.9693C34.5842 16.799 35.0028 16.5911 35.4153 16.3577C35.3301 17.0765 34.4268 18.2498 33.5304 18.7956C33.768 18.8351 33.9692 18.764 34.1718 18.7244C34.375 18.6849 34.5772 18.637 34.7774 18.5829C34.9848 18.5267 35.1877 18.4549 35.3944 18.3969C35.5904 18.3421 35.7651 18.2197 36 18.202C35.8794 18.4351 35.7231 18.6127 35.5765 18.7956C35.1178 19.3691 34.5984 19.8829 34.0085 20.32C33.8556 20.4331 33.8035 20.5462 33.8045 20.7363C33.8247 24.5883 32.4683 27.8835 29.7099 30.5723C27.8077 32.4263 25.4965 33.4872 22.8664 33.8581C20.476 34.195 18.1575 33.9386 15.9196 33.0192C15.2539 32.7458 14.6181 32.4135 14 32.0068C16.4272 32.1775 18.6324 31.5971 20.6028 30.0949Z" fill="white"/>
</svg>
