<svg width="501" height="450" viewBox="0 0 501 450" fill="none" xmlns="http://www.w3.org/2000/svg">
<path d="M326.657 436.046L326.656 436.046C313.085 441.917 298.92 446.67 284.152 448.549C272.154 450.068 259.951 449.655 247.902 448.105C200.102 441.906 155.891 418.213 119.257 387.211C94.9377 366.627 73.5883 342.799 54.9853 316.998C45.9224 304.389 37.4496 291.226 29.8473 277.678C16.6643 254.185 6.49423 229.245 2.32077 202.992C-1.01251 181.938 -0.192596 159.682 8.46408 140.072C13.7512 128.103 28.7789 110.576 50.8844 93.9552C72.9742 77.3464 102.078 61.6837 135.458 53.4069C151.551 49.4092 167.769 47.9894 184.41 46.7409C185.812 46.6357 187.218 46.5317 188.626 46.4275C203.921 45.2956 219.587 44.1363 235.795 41.0948C250.216 38.3911 264.05 32.5063 277.548 26.0662C281.123 24.3605 284.672 22.6169 288.203 20.8825C298.023 16.0585 307.698 11.3059 317.369 7.63989C322.915 5.53751 328.446 3.80029 333.941 2.78113C352.947 -0.730011 372.588 -0.313385 391.073 4.90689C412.969 11.0937 432.642 23.9967 448.293 40.2291C483.603 76.9019 513.153 144.147 492.885 230.422L493.371 230.536L492.885 230.422C476.563 299.921 435.98 363.295 379.422 405.419L379.421 405.419C363.215 417.494 345.58 427.878 326.657 436.046Z" stroke="#60F9D8"/>
</svg>
