<svg width="500" height="450" viewBox="0 0 500 450" fill="none" xmlns="http://www.w3.org/2000/svg">
<path d="M364.44 6.48318L364.44 6.48323C393.991 11.4759 422.158 20.6129 446.79 35.442C461.979 44.5988 475.861 56.2433 484.889 70.6525L485.312 70.387C496.474 88.1927 502.173 108.935 499.235 128.619C491.589 179.631 451.32 213.767 418.843 241.297C407.694 250.749 397.463 259.421 389.786 267.731C372.394 286.554 367.958 311.521 363.768 335.094C362.087 344.555 360.446 353.791 358.023 362.316L357.542 362.179C357.542 362.179 357.542 362.179 357.542 362.179C355.649 368.822 353.289 374.993 349.996 380.39C338.287 399.47 321.369 415.79 300.983 427.683C276.84 441.738 248.102 449.284 219.33 449.495C158.539 449.944 89.5282 420.434 45.5456 360.064L45.1415 360.358L45.5455 360.063C6.50565 306.525 -6.67912 240.256 4.13433 178.021L4.13436 178.021C7.21527 160.252 12.3103 142.617 19.6554 125.643C24.9578 113.42 31.3803 101.526 39.72 90.6401C46.4925 81.8099 54.4815 73.6865 63.2161 66.2711C102.157 33.3331 154.422 15.2333 207.361 6.74849L207.289 6.29852L207.361 6.74848C242.115 1.17183 277.584 -0.572886 312.937 1.11884L312.938 1.11888C330.108 1.91181 347.454 3.60327 364.44 6.48318Z" stroke="#60F9D8"/>
</svg>
