<svg width="500" height="450" viewBox="0 0 500 450" fill="none" xmlns="http://www.w3.org/2000/svg">
<path d="M173.345 13.9543L173.345 13.9541C186.917 8.08293 201.082 3.32967 215.85 1.45117C227.848 -0.0680668 240.051 0.345169 252.099 1.89488C299.9 8.09378 344.111 31.7871 380.745 62.7889C405.064 83.3728 426.414 107.201 445.017 133.002C454.08 145.611 462.552 158.774 470.155 172.322C483.338 195.815 493.508 220.755 497.681 247.008C501.014 268.062 500.195 290.318 491.538 309.928C486.251 321.897 471.223 339.424 449.118 356.045C427.028 372.654 397.924 388.316 364.543 396.593C348.451 400.591 332.233 402.011 315.592 403.259C314.19 403.364 312.784 403.468 311.376 403.573C296.081 404.704 280.415 405.864 264.206 408.905C249.785 411.609 235.952 417.494 222.454 423.934C218.879 425.639 215.33 427.383 211.799 429.117C201.979 433.941 192.304 438.694 182.633 442.36C177.087 444.462 171.556 446.2 166.061 447.219C147.055 450.73 127.414 450.313 108.929 445.093C87.033 438.906 67.3602 426.003 51.7091 409.771C16.3989 373.098 -13.1511 305.853 7.11682 219.578L6.63092 219.464L7.11683 219.578C23.4393 150.079 64.0215 86.7054 120.58 44.5807L120.58 44.5806C136.787 32.5062 154.422 22.1223 173.345 13.9543Z" stroke="#60F9D8"/>
</svg>
