<svg width="501" height="450" viewBox="0 0 501 450" fill="none" xmlns="http://www.w3.org/2000/svg">
<path d="M478.966 363.945L479.375 364.232L478.966 363.945C450.937 403.887 389.704 446.228 295.059 449.297C218.816 451.778 142.139 431.466 82.9578 391.911L82.9575 391.911C65.9866 380.585 50.3819 367.599 36.7041 352.93C26.9003 342.396 18.0371 331.093 12.0156 318.582L12.0152 318.582C7.11669 308.443 4.16149 297.582 2.41662 286.63C-4.44373 243.107 7.7066 198.53 29.5373 158.769L29.1028 158.531L29.5373 158.769C44.0211 132.383 62.6848 107.831 84.1404 85.2172L84.1408 85.2168C94.6012 74.1664 105.832 63.5256 117.713 53.5503L117.392 53.1673L117.713 53.5503C138.303 36.263 161.219 21.2629 187.144 11.2227C207.951 3.17495 231.184 -1.51371 253.833 1.34122C267.685 3.09489 289.958 12.0717 313.242 27.4872C336.514 42.8948 360.743 64.701 378.529 92.0604L378.529 92.0607C387.104 105.232 393.067 119.145 398.975 133.477C399.472 134.682 399.968 135.89 400.466 137.101C405.881 150.281 411.43 163.788 419.069 177.317L419.069 177.317C425.869 189.341 435.784 200.08 446.173 210.39C448.913 213.109 451.685 215.797 454.442 218.472C462.156 225.953 469.757 233.325 476.235 240.959L476.236 240.961C479.961 245.325 483.262 249.754 485.852 254.352C494.745 270.242 499.73 287.571 499.494 305.09C499.2 325.842 491.381 346.261 478.966 363.945Z" stroke="#60F9D8"/>
</svg>
