<svg width="500" height="451" viewBox="0 0 500 451" fill="none" xmlns="http://www.w3.org/2000/svg">
<path d="M1.01142 145.884L1.01124 145.885C0.852154 147.156 0.935871 148.429 1.02318 149.756C1.04745 150.125 1.072 150.499 1.09169 150.877C1.17915 152.559 1.16418 154.308 0.500977 156.04V156.042V156.045V156.048V156.051V156.055V156.058V156.061V156.064V156.067V156.07V156.074V156.077V156.08V156.083V156.086V156.09V156.093V156.096V156.099V156.102V156.105V156.109V156.112V156.115V156.118V156.121V156.125V156.128V156.131V156.134V156.137V156.14V156.144V156.147V156.15V156.153V156.156V156.16V156.163V156.166V156.169V156.172V156.175V156.179V156.182V156.185V156.188V156.191V156.195V156.198V156.201V156.204V156.207V156.211V156.214V156.217V156.22V156.223V156.226V156.23V156.233V156.236V156.239V156.242V156.246V156.249V156.252V156.255V156.258V156.261V156.265V156.268V156.271V156.274V156.277V156.281V156.284V156.287V156.29V156.293V156.296V156.3V156.303V156.306V156.309V156.312V156.316V156.319V156.322V156.325V156.328V156.331V156.335V156.338V156.341V156.344V156.347V156.351V156.354V156.357V156.36V156.363V156.367V156.37V156.373V156.376V156.379V156.382V156.386V156.389V156.392V156.395V156.398V156.402V156.405V156.408V156.411V156.414V156.417V156.421V156.424V156.427V156.43V156.433V156.437V156.44V156.443V156.446V156.449V156.452V156.456V156.459V156.462V156.465V156.468V156.472V156.475V156.478V156.481V156.484V156.488V156.491V156.494V156.497V156.5V156.503V156.507V156.51V156.513V156.516V156.519V156.523V156.526V156.529V156.532V156.535V156.538V156.542V156.545V156.548V156.551V156.554V156.558V156.561V156.564V156.567V156.57V156.573V156.577V156.58V156.583V156.586V156.589V156.593V156.596V156.599V156.602V156.605V156.608V156.612V156.615V156.618V156.621V156.624V156.628V156.631V156.634V156.637V156.64V156.644V156.647V156.65V156.653V156.656V156.659V156.663V156.666V156.669V156.672V156.675V156.679V156.682V156.685V156.688V156.691V156.694V156.698V156.701V156.704V156.707V156.71V156.714V156.717V156.72V156.723V156.726V156.729V156.733V156.736V156.739V156.742V156.745V156.749V156.752V156.755V156.758V156.761V156.764V156.768V156.771V156.774V156.777V156.78V156.784V156.787V156.79V156.793V156.796V156.799V156.803V156.806V156.809V156.812V156.815V156.819V156.822V156.825V156.828V156.831V156.835V156.838V156.841V156.844V156.847V156.85V156.854V156.857V156.86V156.863V156.866V156.87V156.873V156.876V156.879V156.882V156.885V156.889V156.892V156.895V156.898V156.901V156.905V156.908V156.911V156.914V156.917V156.92V156.924V156.927V156.93V156.933V156.936V156.94V156.943V156.946V156.949V156.952V156.956V156.959V156.962V156.965V156.968V156.971V156.975V156.978V156.981V156.984V156.987V156.991V156.994V156.997V157V157.003V157.006V157.01V157.013V157.016V157.019V157.022V157.026V157.029V157.032V157.035V157.038V157.041V157.045V157.048V157.051V157.054V157.057V157.061V157.064V157.067V157.07V157.073V157.076V157.08V157.083V157.086V157.089V157.092V157.096V157.099V157.102V157.105V157.108V157.112V157.115V157.118V157.121V157.124V157.127V157.131V157.134V157.137V157.14V157.143V157.147V157.15V157.153V157.156V157.159V157.162V157.166V157.169V157.172V157.175V157.178V157.182V157.185V157.188V157.191V157.194V157.197V157.201V157.204V157.207V157.21V157.213V157.217V157.22V157.223V157.226V157.229V157.232V157.236V157.239V157.242V157.245V157.248V157.252V157.255V157.258V157.261V157.264V157.268V157.271V157.274V157.277V157.28V157.283V157.287V157.29V157.293V157.296V157.299V157.303V157.306V157.309V157.312V157.315V157.318V157.322V157.325V157.328V157.331V157.334V157.338V157.341V157.344V157.347V157.35V157.353V157.357V157.36V157.363V157.366V157.369V157.373V157.376V157.379V157.382V157.385V157.389V157.392V157.395V157.398V157.401V157.404V157.408V157.411V157.414V157.417V157.42V157.424V157.427V157.43V157.433V157.436V157.439V157.443V157.446V157.449V157.452V157.455V157.459V157.462V157.465V157.468V157.471C1.20292 159.086 1.51509 160.76 1.72688 162.413C1.80269 163.005 1.86519 163.587 1.92704 164.163C2.04423 165.255 2.15908 166.325 2.3577 167.396L2.3578 167.397C6.71523 191.04 15.8466 212.892 27.4632 233.878C39.7216 255.995 55.4513 275.595 72.1198 294.544C100.624 326.94 131.114 357.415 163.05 386.458C187.377 408.58 214.219 426.789 245.599 437.737L245.44 438.19L245.599 437.737C266.147 444.908 287.255 448.892 309.012 449.511C312.12 449.505 315.228 449.505 318.336 449.505M1.01142 145.884L318.342 450.005M1.01142 145.884C1.02608 145.764 1.05137 145.642 1.08199 145.493C1.09368 145.437 1.10614 145.376 1.11909 145.311C1.16226 145.093 1.20687 144.833 1.20516 144.568C1.20342 144.297 1.1538 144 0.994228 143.716C0.87766 143.508 0.713502 143.327 0.500977 143.172M1.01142 145.884L0.500977 141.567M318.336 449.505C318.338 449.505 318.34 449.505 318.342 449.505V450.005M318.336 449.505C318.334 449.505 318.332 449.506 318.331 449.506L318.342 450.005M318.336 449.505C351.024 448.741 381.273 439.768 408.831 422.333C440.846 402.078 465.092 374.697 482.118 341.101C488.788 327.935 491.868 313.507 494.482 298.986C497.785 280.63 499.047 262.077 499.501 243.439M318.342 450.005C351.121 449.239 381.46 440.241 409.098 422.756C441.193 402.45 465.499 374.999 482.564 341.327C489.27 328.09 492.36 313.599 494.974 299.074C498.284 280.682 499.547 262.098 500.001 243.445M499.501 243.439C499.501 243.441 499.501 243.443 499.501 243.445H500.001M499.501 243.439C499.501 243.437 499.501 243.435 499.501 243.432L500.001 243.445M499.501 243.439C499.501 240.956 499.5 238.474 499.498 235.993L499.498 235.827C499.497 233.29 499.496 230.754 499.496 228.215M500.001 243.445C500.001 240.904 500 238.365 499.998 235.827C499.997 233.288 499.996 230.749 499.996 228.209M499.996 228.209L499.496 228.222C499.496 228.22 499.496 228.218 499.496 228.215M499.996 228.209C499.585 213.098 498.754 198.019 496.654 183.028C491.786 148.279 482.898 114.71 466.818 83.2927C460.32 70.6051 452.93 58.4934 442.259 48.6694C426.507 34.1669 407.802 25.7121 386.908 21.7727C366.687 17.9583 346.494 19.1537 326.328 22.5171C314.302 24.5238 302.464 27.3591 290.627 30.1942C280.989 32.5027 271.351 34.8111 261.613 36.6718C260.502 36.884 259.392 37.1042 258.283 37.3243C250.647 38.8396 243.038 40.3494 235.129 39.2202C227.882 38.1798 221.377 35.1635 214.876 32.1487C214.145 31.8098 213.414 31.471 212.683 31.1349C207.218 28.622 201.934 25.7594 196.649 22.8964C190.448 19.5377 184.247 16.1786 177.754 13.3831C163.353 7.18331 148.64 2.0974 132.91 0.467295C132.774 0.456083 132.652 0.316332 132.53 0.177126C132.475 0.113949 132.419 0.0508856 132.363 0M499.996 228.209H499.496C499.496 228.211 499.496 228.213 499.496 228.215M499.496 228.215C499.085 213.115 498.255 198.06 496.158 183.097C491.296 148.387 482.421 114.875 466.372 83.5206C459.884 70.8509 452.527 58.8014 441.921 49.0372C426.247 34.6071 407.631 26.1888 386.815 22.264C366.673 18.4644 346.544 19.6523 326.41 23.0103C315.52 24.8274 304.781 27.3259 294.041 29.8913C292.942 30.1539 291.842 30.4173 290.743 30.6806C281.106 32.9888 271.457 35.2999 261.707 37.1629C260.601 37.3741 259.495 37.5938 258.387 37.8138C250.757 39.3286 243.058 40.8574 235.059 39.7152L235.058 39.7151C227.734 38.6636 221.161 35.615 214.669 32.6039C213.936 32.2643 213.205 31.9251 212.474 31.5893L212.474 31.5892C206.994 29.0691 201.695 26.1988 196.413 23.3372C195.954 23.0889 195.496 22.8407 195.038 22.5928C189.293 19.4844 183.547 16.4216 177.557 13.8424C163.176 7.65146 148.518 2.58795 132.862 0.965008M132.862 0.965008C132.864 0.965212 132.866 0.965407 132.869 0.965591L132.91 0.467661L132.858 0.964632C132.86 0.964758 132.861 0.964883 132.862 0.965008ZM132.862 0.965008C132.558 0.936931 132.35 0.720137 132.268 0.632783C132.226 0.589342 132.183 0.540284 132.149 0.501116C132.149 0.500743 132.148 0.500371 132.148 0.5M132.148 0.5H132.171H132.203H132.235H132.267H132.299H132.331H132.363V0M132.148 0.5C132.139 0.489361 132.13 0.47947 132.122 0.470642C132.079 0.421943 132.051 0.391584 132.028 0.371068L132.363 0M132.148 0.5H132.139H132.107H132.074H132.042H132.01H131.978H131.946H131.914H131.882H131.85H131.818H131.786H131.754H131.722H131.69H131.658H131.626H131.594H131.562H131.53H131.498H131.466H131.434H131.401H131.369H131.337H131.305H131.273H131.241H131.209H131.177H131.145H131.113H131.081H131.049H131.017H130.985H130.953H130.921H130.889H130.857H130.825H130.793H130.761H130.728H130.696H130.664H130.632H130.6H130.568H130.536H130.504H130.472H130.44H130.408H130.376H130.344H130.312H130.28H130.248H130.216H130.184H130.152H130.12H130.088H130.055H130.023H129.991H129.959H129.927H129.895H129.863H129.831H129.799H129.767H129.735H129.703H129.671H129.639H129.607H129.575H129.543H129.511H129.479H129.447H129.415H129.382H129.35H129.318H129.286H129.254H129.222H129.19H129.158H129.126H129.094H129.062H129.03H128.998H128.966H128.934H128.902H128.87H128.838H128.806H128.774H128.742H128.709H128.677H128.645H128.613H128.581H128.549H128.517H128.485H128.453H128.421H128.389H128.357H128.325H128.293H128.261H128.229H128.197H128.165H128.133H128.101H128.069H128.036H128.004H127.972H127.94H127.908H127.876H127.844H127.812H127.78H127.748H127.716H127.684H127.652H127.62H127.588H127.556H127.524H127.492H127.46H127.428H127.396H127.363H127.331H127.299H127.267H127.235H127.203H127.171H127.139H127.107H127.075H127.043H127.011H126.979H126.947H126.915H126.883H126.851H126.819H126.787H126.755H126.723H126.69H126.658H126.626H126.594H126.562H126.53H126.498H126.466H126.434H126.402H126.37H126.338H126.306H126.274H126.242H126.21H126.178H126.146H126.114H126.082H126.049H126.017H125.985H125.953H125.921H125.889H125.857H125.825H125.793H125.761H125.729H125.697H125.665H125.633H125.601H125.569H125.537H125.505H125.473H125.441H125.409H125.376H125.344H125.312H125.28H125.248H125.216H125.184H125.152H125.12H125.088H125.056H125.024H124.992H124.96H124.928H124.896H124.864H124.832H124.8H124.768H124.736H124.703H124.671H124.639H124.607H124.575H124.543H124.511H124.479H124.447H124.415H124.383H124.351H124.319H124.287H124.255H124.223H124.191H124.159H124.127H124.095H124.063H124.03H123.998H123.966H123.934H123.902H123.87H123.838H123.806H123.774H123.742H123.71H123.678H123.646H123.614H123.582H123.55H123.518H123.486H123.454H123.422H123.39H123.357H123.325H123.293H123.261H123.229H123.197H123.165H123.133H123.101H123.069H123.037H123.005H122.973H122.941H122.909H122.877H122.845H122.813H122.781H122.749H122.717H122.684H122.652H122.62H122.588H122.556H122.524H122.492H122.46H122.428H122.396H122.364H122.332H122.3H122.268H122.236H122.204H122.172H122.14H122.108H122.076H122.044H122.011H121.979H121.947H121.915H121.883H121.851H121.819H121.787H121.755H121.723H121.691H121.659H121.627H121.595H121.563H121.531H121.499H121.467H121.435H121.403H121.371H121.338H121.306H121.274H121.242H121.21H121.178H121.146H121.114H121.082H121.05H121.018H120.986H120.954H120.922H120.89H120.858H120.826H120.794H120.762H120.73H120.698H120.665H120.633H120.601H120.569H120.537H120.505H120.473H120.441H120.409H120.377H120.345H120.313H120.281H120.249H120.217H120.185H120.153H120.121H120.089H120.057H120.025H119.992H119.96H119.928H119.896H119.864H119.832H119.8H119.768H119.736H119.704H119.672H119.64H119.608H119.576H119.544H119.512H119.48H119.448H119.416H119.384H119.351H119.319H119.287H119.255H119.223H119.191H119.159H119.127H119.095H119.063H119.031H118.999H118.967H118.935H118.903H118.871H118.839H118.807H118.775H118.743H118.711H118.678H118.646H118.614H118.582H118.55H118.518H118.486H118.454H118.422H118.39H118.358H118.326H118.294H118.262H118.23H118.198H118.166H118.134H118.102H118.07H118.038H118.005H117.973H117.941H117.909H117.877H117.845H117.813H117.781H117.749H117.717H117.685H117.653H117.621H117.589H117.557H117.525H117.493H117.461H117.429H117.397H117.365H117.332H117.3H117.268H117.236H117.204H117.172H117.14H117.108H117.076H117.044H117.012H116.98H116.948H116.916H116.884H116.852H116.82H116.788H116.756H116.724H116.692H116.659H116.627H116.595H116.563H116.531H116.499H116.467H116.435H116.403H116.371H116.339H116.307H116.275H116.243H116.211H116.179H116.147H116.115H116.083H116.07M132.363 0H115.954M115.954 0L116.177 0.447619C116.142 0.465318 116.106 0.482777 116.07 0.5M115.954 0C114.203 0.871688 112.309 1.14055 110.414 1.40951C109.391 1.55466 108.368 1.69984 107.367 1.93982M115.954 0V0.5H115.986H116.019H116.051H116.07M116.07 0.5C114.685 1.16923 113.23 1.48215 111.799 1.71023C111.346 1.78246 110.899 1.84582 110.458 1.90846C109.446 2.05199 108.461 2.19177 107.484 2.42601M107.367 1.93982L107.485 2.42586C107.484 2.42591 107.484 2.42596 107.484 2.42601M107.367 1.93982C90.6416 5.97703 76.0653 14.1819 63.2886 25.3263M107.367 1.93982L107.484 2.42604C107.484 2.42603 107.484 2.42602 107.484 2.42601M107.484 2.42601C90.8477 6.44175 76.3423 14.6038 63.6172 25.7031M63.2886 25.3263L63.6173 25.7031C63.6173 25.7031 63.6173 25.7031 63.6172 25.7031M63.2886 25.3263L63.6172 25.7031M63.2886 25.3263C44.1016 42.0675 27.0367 60.6397 15.7094 83.76C7.09492 101.343 2.16143 119.905 0.569805 139.374L0.500977 141.567M63.6172 25.7031C44.4555 42.4223 27.4448 60.9433 16.1584 83.98C7.57269 101.505 2.65491 120.005 1.06814 139.414L1.06803 139.416C1.05872 139.526 1.06865 139.655 1.08571 139.839L1.08803 139.864C1.10324 140.028 1.12256 140.235 1.11068 140.441C1.09775 140.665 1.04716 140.919 0.895572 141.161C0.796062 141.319 0.664083 141.454 0.500977 141.567M0.500977 141.567V141.564V141.559V141.555V141.551V141.547V141.542V141.538V141.534V141.53V141.525V141.521V141.517V141.513V141.508V141.504V141.5V141.496V141.491V141.487V141.483V141.479V141.475V141.47V141.466V141.462V141.458V141.453V141.449V141.445V141.441V141.436V141.432V141.428V141.424V141.419V141.415V141.411V141.407V141.402V141.398V141.394V141.39V141.385V141.381V141.377V141.373V141.369V141.364V141.36V141.356V141.352V141.347V141.343V141.339V141.335V141.33V141.326V141.322V141.318V141.313V141.309V141.305V141.301V141.297V141.292V141.288V141.284V141.28V141.275H0.000976562L0.204927 141.732C0.312816 141.684 0.411572 141.629 0.500977 141.567ZM0.500977 141.567V141.568V141.572V141.576V141.581V141.585V141.589V141.593V141.597V141.602V141.606V141.61V141.614V141.619V141.623V141.627V141.631V141.636V141.64V141.644V141.648V141.653V141.657V141.661V141.665V141.67V141.674V141.678V141.682V141.687V141.691V141.695V141.699V141.704V141.708V141.712V141.716V141.721V141.725V141.729V141.733V141.738V141.742V141.746V141.75V141.755V141.759V141.763V141.767V141.771V141.776V141.78V141.784V141.788V141.793V141.797V141.801V141.805V141.81V141.814V141.818V141.822V141.827V141.831V141.835V141.839V141.844V141.848V141.852V141.856V141.861V141.865V141.869V141.873V141.878V141.882V141.886V141.89V141.895V141.899V141.903V141.907V141.912V141.916V141.92V141.924V141.929V141.933V141.937V141.941V141.946V141.95V141.954V141.958V141.963V141.967V141.971V141.975V141.98V141.984V141.988V141.992V141.997V142.001V142.005V142.009V142.014V142.018V142.022V142.026V142.031V142.035V142.039V142.043V142.048V142.052V142.056V142.06V142.065V142.069V142.073V142.077V142.082V142.086V142.09V142.094V142.099V142.103V142.107V142.111V142.116V142.12V142.124V142.128V142.133V142.137V142.141V142.145V142.15V142.154V142.158V142.162V142.167V142.171V142.175V142.179V142.184V142.188V142.192V142.196V142.201V142.205V142.209V142.213V142.218V142.222V142.226V142.23V142.235V142.239V142.243V142.247V142.252V142.256V142.26V142.264V142.269V142.273V142.277V142.281V142.286V142.29V142.294V142.298V142.303V142.307V142.311V142.315V142.32V142.324V142.328V142.332V142.337V142.341V142.345V142.349V142.354V142.358V142.362V142.366V142.371V142.375V142.379V142.383V142.388V142.392V142.396V142.4V142.405V142.409V142.413V142.417V142.422V142.426V142.43V142.434V142.439V142.443V142.447V142.451V142.456V142.46V142.464V142.468V142.473V142.477V142.481V142.485V142.49V142.494V142.498V142.502V142.507V142.511V142.515V142.519V142.524V142.528V142.532V142.536V142.541V142.545V142.549V142.553V142.558V142.562V142.566V142.57V142.575V142.579V142.583V142.587V142.592V142.596V142.6V142.604V142.609V142.613V142.617V142.621V142.626V142.63V142.634V142.638V142.643V142.647V142.651V142.655V142.66V142.664V142.668V142.672V142.677V142.681V142.685V142.689V142.694V142.698V142.702V142.706V142.711V142.715V142.719V142.723V142.728V142.732V142.736V142.74V142.745V142.749V142.753V142.757V142.762V142.766V142.77V142.774V142.779V142.783V142.787V142.791V142.796V142.8V142.804V142.808V142.813V142.817V142.821V142.825V142.83V142.834V142.838V142.842V142.847V142.851V142.855V142.859V142.863V142.868V142.872V142.876V142.88V142.885V142.889V142.893V142.897V142.902V142.906V142.91V142.914V142.919V142.923V142.927V142.931V142.936V142.94V142.944V142.948V142.953V142.957V142.961V142.965V142.97V142.974V142.978V142.982V142.987V142.991V142.995V142.999V143.004V143.008V143.012V143.016V143.021V143.025V143.029V143.033V143.038V143.042V143.046V143.05V143.055V143.059V143.063V143.067V143.072V143.076V143.08V143.084V143.088V143.093V143.097V143.101V143.105V143.11V143.114V143.118V143.122V143.127V143.131V143.135V143.139V143.144V143.148V143.152V143.156V143.161V143.165V143.169V143.172M0.500977 143.172C0.419855 143.113 0.331687 143.059 0.236429 143.008L0.000976562 143.449M0.500977 143.172V143.173V143.178V143.182V143.186V143.19V143.195V143.199V143.203V143.207V143.212V143.216V143.22V143.224V143.228V143.233V143.237V143.241V143.245V143.25V143.254V143.258V143.262V143.267V143.271V143.275V143.279V143.284V143.288V143.292V143.296V143.301V143.305V143.309V143.313V143.317V143.322V143.326V143.33V143.334V143.339V143.343V143.347V143.351V143.356V143.36V143.364V143.368V143.373V143.377V143.381V143.385V143.39V143.394V143.398V143.402V143.406V143.411V143.415V143.419V143.423V143.428V143.432V143.436V143.44V143.445V143.449H0.000976562M0.000976562 143.449C0.895209 143.926 0.73638 144.695 0.595931 145.374C0.563712 145.53 0.53246 145.681 0.51511 145.823C0.349507 147.146 0.437608 148.481 0.52569 149.816C0.661614 151.876 0.797493 153.935 0.000976562 155.946V157.576C0.943487 159.693 1.18518 161.942 1.4268 164.19C1.54553 165.294 1.66424 166.399 1.86608 167.487L0.000976562 143.449Z" stroke="#60F9D8"/>
</svg>
