<svg width="1920" height="967" viewBox="0 0 1920 967" fill="none" xmlns="http://www.w3.org/2000/svg">
<g opacity="0.5">
<mask id="mask0_5_605" style="mask-type:alpha" maskUnits="userSpaceOnUse" x="0" y="0" width="1920" height="967">
<rect width="1920" height="967" fill="#D9D9D9"/>
</mask>
<g mask="url(#mask0_5_605)">
<path d="M1920 -56.1809C1920 -56.1809 1742.8 -64.5457 1780.37 151.872C1806.69 303.57 1675.68 446.818 1516.48 340.252C1338.76 221.288 1128.3 158.637 1075.69 363.81C1023.08 568.982 1020.13 860.662 832.793 811.989C627.192 758.578 425.581 739.373 252.793 499.311" stroke="url(#paint0_linear_5_605)" stroke-width="0.4123" stroke-miterlimit="10"/>
<path d="M1908.74 -70.606C1908.74 -70.606 1732.02 -75.1725 1768.87 140.904C1794.72 292.687 1661.4 448.162 1501.5 342.727C1323.98 225.491 1122.35 157.1 1065.42 356.085C1006.82 560.895 1015.54 863.116 825.817 819.052C620.557 771.381 411.116 739.437 240.781 520.031" stroke="url(#paint1_linear_5_605)" stroke-width="0.4123" stroke-miterlimit="10"/>
<path d="M1897.45 -85.031C1897.45 -85.031 1721.23 -85.7992 1757.32 129.936C1782.69 281.805 1647.09 449.506 1486.48 345.202C1309.13 229.674 1116.12 155.585 1055.1 348.382C990.37 552.936 1010.96 865.528 818.755 826.115C613.922 784.12 396.545 739.522 228.706 540.751" stroke="url(#paint2_linear_5_605)" stroke-width="0.4123" stroke-miterlimit="10"/>
<path d="M1886.18 -99.4561C1886.18 -99.4561 1710.45 -96.426 1745.82 118.968C1770.72 270.943 1632.79 450.851 1471.51 347.677C1294.34 233.877 1109.69 154.092 1044.84 340.678C973.793 545.04 1006.46 867.896 811.778 833.199C607.394 796.795 382.08 739.629 216.695 561.492" stroke="url(#paint3_linear_5_605)" stroke-width="0.4123" stroke-miterlimit="10"/>
<path d="M1874.9 -113.86C1874.9 -113.86 1699.66 -107.053 1734.28 108C1758.71 260.06 1618.48 452.195 1456.49 350.153C1279.52 238.081 1102.97 152.598 1034.53 332.954C957.024 537.187 1001.98 870.158 804.759 840.263C600.887 809.364 367.551 739.693 204.641 582.212" stroke="url(#paint4_linear_5_605)" stroke-width="0.4123" stroke-miterlimit="10"/>
<path d="M1863.61 -128.285C1863.61 -128.285 1688.86 -117.679 1722.76 97.0317C1746.7 249.177 1604.19 453.539 1441.49 352.607C1264.69 242.242 1096.04 151.04 1024.23 325.229C940.084 529.377 997.517 872.378 797.719 847.326C594.401 821.847 353.022 739.778 192.587 602.932" stroke="url(#paint5_linear_5_605)" stroke-width="0.4123" stroke-miterlimit="10"/>
<path d="M1852.35 -142.71C1852.35 -142.71 1678.09 -128.306 1711.26 86.0636C1734.73 238.316 1589.91 454.884 1426.53 355.082C1249.93 246.425 1088.91 149.504 1013.99 317.526C922.995 521.589 993.165 874.533 790.764 854.41C588.022 834.267 338.557 739.885 180.597 623.674" stroke="url(#paint6_linear_5_605)" stroke-width="0.4123" stroke-miterlimit="10"/>
<path d="M1841.06 -157.135C1841.06 -157.135 1667.29 -138.933 1699.72 75.0741C1722.7 227.412 1575.6 456.207 1411.51 357.536C1235.08 250.607 1081.49 147.882 1003.66 309.78C905.629 513.757 988.748 876.56 783.702 861.452C581.558 846.536 324.007 739.949 168.5 644.372" stroke="url(#paint7_linear_5_605)" stroke-width="0.4123" stroke-miterlimit="10"/>
<path d="M1829.78 -171.539C1829.78 -171.539 1656.5 -149.56 1688.2 64.1273C1710.69 216.572 1561.3 457.572 1396.51 360.033C1220.27 254.832 1073.87 146.239 993.378 302.098C888.092 505.947 984.396 878.587 776.704 868.558C575.179 858.806 309.5 740.055 156.489 665.135" stroke="url(#paint8_linear_5_605)" stroke-width="0.4123" stroke-miterlimit="10"/>
<path d="M1818.51 -185.964C1818.51 -185.964 1645.72 -160.186 1676.7 53.1591C1698.72 205.689 1547.03 458.917 1381.54 362.508C1205.49 259.015 1066.09 144.511 983.116 294.394C870.363 498.052 980.086 880.508 769.728 875.642C568.821 870.969 295.035 740.162 144.477 685.876" stroke="url(#paint9_linear_5_605)" stroke-width="0.4123" stroke-miterlimit="10"/>
<path d="M1807.23 -200.389C1807.23 -200.389 1634.93 -170.813 1665.16 42.191C1686.71 194.806 1532.71 460.261 1366.52 364.983C1190.64 263.218 1058.06 142.697 972.79 286.691C852.335 490.071 975.713 882.364 762.666 882.705C562.399 883.047 280.464 740.248 132.402 706.596" stroke="url(#paint10_linear_5_605)" stroke-width="0.4123" stroke-miterlimit="10"/>
<path d="M1795.96 -214.814C1795.96 -214.814 1624.15 -181.44 1653.66 31.2015C1674.72 183.923 1518.42 461.584 1351.54 367.437C1175.85 267.379 1049.91 140.776 962.528 278.945C834.158 481.941 971.382 884.071 755.69 889.747C556.063 894.997 265.999 740.29 120.391 727.295" stroke="url(#paint11_linear_5_605)" stroke-width="0.4123" stroke-miterlimit="10"/>
<path d="M1784.68 -229.217C1784.68 -229.217 1613.36 -192.066 1642.12 20.2547C1662.71 173.062 1504.1 462.95 1336.52 369.912C1161 271.583 1041.55 138.77 952.202 271.242C815.661 473.683 967.008 885.757 748.65 896.832C549.641 906.925 251.449 740.397 108.315 748.036" stroke="url(#paint12_linear_5_605)" stroke-width="0.4123" stroke-miterlimit="10"/>
<path d="M1773.39 -243.642C1773.39 -243.642 1602.56 -202.693 1630.6 9.28653C1650.69 162.179 1489.81 464.294 1321.52 372.388C1146.2 275.787 1033.08 136.658 941.919 263.538C796.994 465.254 962.656 887.336 741.631 903.916C543.241 918.789 236.941 740.504 96.2827 768.778" stroke="url(#paint13_linear_5_605)" stroke-width="0.4123" stroke-miterlimit="10"/>
<path d="M1762.12 -258.067C1762.12 -258.067 1591.79 -213.32 1619.1 -1.70288C1638.73 151.296 1475.54 465.617 1306.57 374.842C1131.43 279.948 1024.53 134.396 931.678 255.793C778.113 456.548 958.325 888.809 734.676 910.958C536.905 930.547 222.476 740.568 84.2927 789.476" stroke="url(#paint14_linear_5_605)" stroke-width="0.4123" stroke-miterlimit="10"/>
<path d="M1750.84 -272.492C1750.84 -272.492 1580.99 -223.968 1607.56 -12.6711C1626.69 140.414 1461.22 466.94 1291.55 377.317C1116.58 284.152 1015.8 132.049 921.353 248.089C758.933 447.671 953.888 890.238 727.614 918.043C530.419 942.262 207.926 740.674 72.2173 810.217" stroke="url(#paint15_linear_5_605)" stroke-width="0.4123" stroke-miterlimit="10"/>
<path d="M1739.55 -286.896C1739.55 -286.896 1570.2 -234.573 1596.04 -23.6178C1614.7 129.574 1446.93 468.306 1276.55 379.814C1101.78 288.356 1007.01 129.574 911.069 240.407C739.54 438.517 949.471 891.625 720.616 925.148C523.976 953.956 193.419 740.781 60.1847 830.98" stroke="url(#paint16_linear_5_605)" stroke-width="0.4123" stroke-miterlimit="10"/>
<path d="M1728.29 -301.321C1728.29 -301.321 1559.43 -245.2 1584.51 -34.586C1602.69 118.691 1432.61 469.65 1261.55 382.289C1086.95 292.559 998.157 126.949 900.765 232.683C719.933 429.021 944.991 892.863 713.597 932.19C517.49 965.521 178.911 740.845 48.1307 851.679" stroke="url(#paint17_linear_5_605)" stroke-width="0.4123" stroke-miterlimit="10"/>
<path d="M1717 -315.746C1717 -315.746 1548.63 -255.827 1572.99 -45.5755C1590.7 107.787 1418.32 470.973 1246.55 384.743C1072.14 296.72 989.26 124.175 890.481 224.958C700.114 419.184 940.49 894.036 706.578 939.253C510.962 977.066 164.382 740.93 36.098 872.399" stroke="url(#paint18_linear_5_605)" stroke-width="0.4123" stroke-miterlimit="10"/>
<path d="M1705.74 -330.171C1705.74 -330.171 1537.88 -266.475 1561.49 -56.5437C1578.71 96.9251 1404.05 472.317 1231.6 387.197C1057.38 300.903 980.385 121.251 880.22 217.233C680.144 408.984 935.988 895.146 699.602 946.317C504.455 988.567 149.918 740.994 24.0867 893.119" stroke="#60F9D8" stroke-width="0.4123" stroke-miterlimit="10"/>
<path d="M1694.45 -344.575C1694.45 -344.575 1527.08 -277.08 1549.95 -67.4905C1566.7 86.0636 1389.73 473.683 1216.58 389.693C1042.53 305.106 971.425 118.221 869.915 209.53C659.941 398.421 931.38 896.191 692.561 953.401C497.841 1000.05 135.368 741.101 12.0114 913.86" stroke="#0B8FCF" stroke-width="0.4123" stroke-miterlimit="10"/>
<path d="M1683.17 -359C1683.17 -359 1516.29 -287.707 1538.43 -78.48C1554.69 75.1595 1375.44 475.006 1201.58 392.148C1027.73 309.289 962.507 114.999 859.632 201.805C639.609 387.432 926.75 897.173 685.563 960.464C491.227 1011.46 120.881 741.187 0 934.58" stroke="#60F9D8" stroke-width="0.4123" stroke-miterlimit="10"/>
</g>
</g>
<defs>
<linearGradient id="paint0_linear_5_605" x1="1760.77" y1="-242.66" x2="521.474" y2="818.264" gradientUnits="userSpaceOnUse">
<stop stop-color="#34E5F3" stop-opacity="0"/>
<stop offset="0.3234" stop-color="#34E5F3"/>
<stop offset="0.6735" stop-color="#34E5F3"/>
<stop offset="1" stop-color="#34E5F3" stop-opacity="0"/>
</linearGradient>
<linearGradient id="paint1_linear_5_605" x1="1760.04" y1="-244.754" x2="504.454" y2="830.111" gradientUnits="userSpaceOnUse">
<stop stop-color="#34E5F3" stop-opacity="0"/>
<stop offset="0.3234" stop-color="#34E5F3"/>
<stop offset="0.6735" stop-color="#34E5F3"/>
<stop offset="1" stop-color="#34E5F3" stop-opacity="0"/>
</linearGradient>
<linearGradient id="paint2_linear_5_605" x1="1759.35" y1="-246.791" x2="486.632" y2="842.743" gradientUnits="userSpaceOnUse">
<stop stop-color="#34E5F3" stop-opacity="0"/>
<stop offset="0.3234" stop-color="#34E5F3"/>
<stop offset="0.6735" stop-color="#34E5F3"/>
<stop offset="1" stop-color="#34E5F3" stop-opacity="0"/>
</linearGradient>
<linearGradient id="paint3_linear_5_605" x1="1758.7" y1="-248.786" x2="468.197" y2="855.973" gradientUnits="userSpaceOnUse">
<stop stop-color="#34E5F3" stop-opacity="0"/>
<stop offset="0.3234" stop-color="#34E5F3"/>
<stop offset="0.6735" stop-color="#34E5F3"/>
<stop offset="1" stop-color="#34E5F3" stop-opacity="0"/>
</linearGradient>
<linearGradient id="paint4_linear_5_605" x1="1758.09" y1="-250.73" x2="449.794" y2="869.263" gradientUnits="userSpaceOnUse">
<stop stop-color="#34E5F3" stop-opacity="0"/>
<stop offset="0.3234" stop-color="#34E5F3"/>
<stop offset="0.6735" stop-color="#34E5F3"/>
<stop offset="1" stop-color="#34E5F3" stop-opacity="0"/>
</linearGradient>
<linearGradient id="paint5_linear_5_605" x1="1757.53" y1="-252.621" x2="431.438" y2="882.606" gradientUnits="userSpaceOnUse">
<stop stop-color="#34E5F3" stop-opacity="0"/>
<stop offset="0.3234" stop-color="#34E5F3"/>
<stop offset="0.6735" stop-color="#34E5F3"/>
<stop offset="1" stop-color="#34E5F3" stop-opacity="0"/>
</linearGradient>
<linearGradient id="paint6_linear_5_605" x1="1757.01" y1="-254.459" x2="413.128" y2="895.997" gradientUnits="userSpaceOnUse">
<stop stop-color="#34E5F3" stop-opacity="0"/>
<stop offset="0.3234" stop-color="#34E5F3"/>
<stop offset="0.6735" stop-color="#34E5F3"/>
<stop offset="1" stop-color="#34E5F3" stop-opacity="0"/>
</linearGradient>
<linearGradient id="paint7_linear_5_605" x1="1756.54" y1="-256.25" x2="394.861" y2="909.436" gradientUnits="userSpaceOnUse">
<stop stop-color="#34E5F3" stop-opacity="0"/>
<stop offset="0.3234" stop-color="#34E5F3"/>
<stop offset="0.6735" stop-color="#34E5F3"/>
<stop offset="1" stop-color="#34E5F3" stop-opacity="0"/>
</linearGradient>
<linearGradient id="paint8_linear_5_605" x1="1756.1" y1="-257.992" x2="376.641" y2="922.918" gradientUnits="userSpaceOnUse">
<stop stop-color="#34E5F3" stop-opacity="0"/>
<stop offset="0.3234" stop-color="#34E5F3"/>
<stop offset="0.6735" stop-color="#34E5F3"/>
<stop offset="1" stop-color="#34E5F3" stop-opacity="0"/>
</linearGradient>
<linearGradient id="paint9_linear_5_605" x1="1755.71" y1="-259.686" x2="358.467" y2="936.445" gradientUnits="userSpaceOnUse">
<stop stop-color="#34E5F3" stop-opacity="0"/>
<stop offset="0.3234" stop-color="#34E5F3"/>
<stop offset="0.6735" stop-color="#34E5F3"/>
<stop offset="1" stop-color="#34E5F3" stop-opacity="0"/>
</linearGradient>
<linearGradient id="paint10_linear_5_605" x1="1755.35" y1="-261.335" x2="340.335" y2="950.012" gradientUnits="userSpaceOnUse">
<stop stop-color="#34E5F3" stop-opacity="0"/>
<stop offset="0.3234" stop-color="#34E5F3"/>
<stop offset="0.6735" stop-color="#34E5F3"/>
<stop offset="1" stop-color="#34E5F3" stop-opacity="0"/>
</linearGradient>
<linearGradient id="paint11_linear_5_605" x1="1755.03" y1="-262.94" x2="322.251" y2="963.618" gradientUnits="userSpaceOnUse">
<stop stop-color="#34E5F3" stop-opacity="0"/>
<stop offset="0.3234" stop-color="#34E5F3"/>
<stop offset="0.6735" stop-color="#34E5F3"/>
<stop offset="1" stop-color="#34E5F3" stop-opacity="0"/>
</linearGradient>
<linearGradient id="paint12_linear_5_605" x1="1754.75" y1="-264.498" x2="304.212" y2="977.262" gradientUnits="userSpaceOnUse">
<stop stop-color="#34E5F3" stop-opacity="0"/>
<stop offset="0.3234" stop-color="#34E5F3"/>
<stop offset="0.6735" stop-color="#34E5F3"/>
<stop offset="1" stop-color="#34E5F3" stop-opacity="0"/>
</linearGradient>
<linearGradient id="paint13_linear_5_605" x1="1754.51" y1="-266.014" x2="286.214" y2="990.947" gradientUnits="userSpaceOnUse">
<stop stop-color="#34E5F3" stop-opacity="0"/>
<stop offset="0.3234" stop-color="#34E5F3"/>
<stop offset="0.6735" stop-color="#34E5F3"/>
<stop offset="1" stop-color="#34E5F3" stop-opacity="0"/>
</linearGradient>
<linearGradient id="paint14_linear_5_605" x1="1754.3" y1="-267.485" x2="268.257" y2="1004.67" gradientUnits="userSpaceOnUse">
<stop stop-color="#34E5F3" stop-opacity="0"/>
<stop offset="0.3234" stop-color="#34E5F3"/>
<stop offset="0.6735" stop-color="#34E5F3"/>
<stop offset="1" stop-color="#34E5F3" stop-opacity="0"/>
</linearGradient>
<linearGradient id="paint15_linear_5_605" x1="1754.14" y1="-268.914" x2="250.333" y2="1018.44" gradientUnits="userSpaceOnUse">
<stop stop-color="#34E5F3" stop-opacity="0"/>
<stop offset="0.3234" stop-color="#34E5F3"/>
<stop offset="0.6735" stop-color="#34E5F3"/>
<stop offset="1" stop-color="#34E5F3" stop-opacity="0"/>
</linearGradient>
<linearGradient id="paint16_linear_5_605" x1="1754" y1="-270.305" x2="232.444" y2="1032.25" gradientUnits="userSpaceOnUse">
<stop stop-color="#34E5F3" stop-opacity="0"/>
<stop offset="0.3234" stop-color="#34E5F3"/>
<stop offset="0.6735" stop-color="#34E5F3"/>
<stop offset="1" stop-color="#34E5F3" stop-opacity="0"/>
</linearGradient>
<linearGradient id="paint17_linear_5_605" x1="1753.94" y1="-271.607" x2="214.624" y2="1046.15" gradientUnits="userSpaceOnUse">
<stop stop-color="#34E5F3" stop-opacity="0"/>
<stop offset="0.3234" stop-color="#34E5F3"/>
<stop offset="0.6735" stop-color="#34E5F3"/>
<stop offset="1" stop-color="#34E5F3" stop-opacity="0"/>
</linearGradient>
<linearGradient id="paint18_linear_5_605" x1="1756.79" y1="-269.513" x2="199.646" y2="1063.51" gradientUnits="userSpaceOnUse">
<stop stop-color="#34E5F3" stop-opacity="0"/>
<stop offset="0.3234" stop-color="#34E5F3"/>
<stop offset="0.6735" stop-color="#34E5F3"/>
<stop offset="1" stop-color="#34E5F3" stop-opacity="0"/>
</linearGradient>
</defs>
</svg>
