<svg width="100" height="100" viewBox="0 0 100 100" fill="none" xmlns="http://www.w3.org/2000/svg">
<circle cx="50" cy="50" r="50" fill="url(#paint0_linear_77_945)"/>
<path fill-rule="evenodd" clip-rule="evenodd" d="M45.5022 32.0542L41.9781 32.0539C36.4983 32.0533 31.0184 32.0528 25.5386 32.0647C25.1103 32.066 24.9901 31.9763 25.0006 31.5354C25.0232 30.647 25.0195 29.7581 25.0159 28.8693C25.014 28.4058 25.012 27.9423 25.0139 27.4789C25.0205 26.0071 26.0262 25.0025 27.5091 25.0025C39.4807 24.9999 51.4523 24.9985 63.4239 25.0025C65.0006 25.0025 65.9773 25.9912 65.9839 27.5687C65.9857 28.0203 65.9839 28.472 65.9821 28.9236C65.9785 29.8079 65.9748 30.6921 65.9985 31.5763C66.0104 32.0264 65.8425 32.0634 65.4658 32.0621C59.9215 32.0533 54.3754 32.0536 48.8297 32.054L45.5022 32.0542ZM52.8083 27.7674L52.8069 27.7674C51.0782 27.7666 49.3499 27.7658 47.6208 27.7706C46.9335 27.7733 46.5674 28.3277 46.8556 28.9006C47.0432 29.2728 47.3882 29.2913 47.7477 29.2913C51.2394 29.2893 54.7319 29.2896 58.224 29.2898L61.7137 29.29C61.8128 29.29 61.9119 29.29 62.011 29.2794C62.4538 29.2293 62.7168 28.9085 62.6851 28.465C62.652 28.0069 62.3573 27.7706 61.7864 27.7693C60.1106 27.7665 58.4361 27.767 56.7615 27.7676C56.0919 27.7678 55.4222 27.768 54.7525 27.768C54.1043 27.768 53.4563 27.7677 52.8083 27.7674ZM30.4948 29.9751C31.3155 29.9685 31.9235 29.3613 31.9327 28.5402C31.942 27.7046 31.3168 27.0802 30.4723 27.0789C29.6277 27.0776 29.0039 27.6941 29.0013 28.531C28.9986 29.3336 29.6701 29.9817 30.4948 29.9751ZM36.2347 29.9751C37.0356 29.9751 37.6872 29.3428 37.7005 28.5508C37.7137 27.7416 37.0555 27.0816 36.2308 27.0802C35.3862 27.0776 34.7664 27.702 34.7716 28.5481C34.7756 29.3309 35.4351 29.9751 36.2347 29.9751ZM41.9469 29.9751C42.7505 29.9659 43.377 29.3309 43.3756 28.5257C43.3743 27.7033 42.728 27.071 41.8941 27.0802C41.0522 27.0882 40.4588 27.7112 40.4733 28.5719C40.4878 29.3613 41.142 29.9843 41.9469 29.9751ZM45.4997 33.604C46.7676 33.604 48.0356 33.6042 49.3035 33.6044H49.3035H49.3035H49.3036H49.3036H49.3036C54.6915 33.6052 60.0791 33.606 65.4659 33.5921C65.9087 33.5908 66.0012 33.7056 65.9972 34.1307C65.9734 36.3074 65.9748 38.4855 65.9972 40.6622C66.0012 41.0675 65.8743 41.1427 65.5003 41.1401C64.5327 41.1344 63.565 41.1405 62.5973 41.1465C60.8725 41.1574 59.1479 41.1682 57.425 41.1124C54.9033 41.0305 53.0331 42.9142 53.0556 45.4553C53.093 49.7254 53.0888 53.9955 53.0846 58.2659V58.266V58.2661V58.2662V58.2663V58.267C53.0823 60.6273 53.0799 62.9877 53.0846 65.3483C53.086 65.7417 53.0186 65.8737 52.5851 65.8724C46.6626 65.862 40.7401 65.8617 34.8177 65.8615C32.4494 65.8614 30.0811 65.8612 27.7128 65.8605C25.9669 65.8605 25.0152 64.9087 25.0152 63.1755L25.0154 59.0013C25.0157 50.7102 25.016 42.4191 25.0047 34.128C25.0047 33.703 25.0919 33.5895 25.5334 33.5908C31.1372 33.6052 36.7421 33.6047 42.347 33.6042H42.3471H42.3471H42.3471H42.3471L45.4997 33.604ZM40.6346 48.1812C37.3146 48.1812 33.9933 48.1812 30.6733 48.1825C30.6455 48.1825 30.6176 48.1823 30.5895 48.182C30.4347 48.1806 30.2771 48.1792 30.1327 48.2195C29.76 48.3238 29.5472 48.5772 29.5591 48.9825C29.571 49.36 29.7693 49.6029 30.1314 49.6913C30.3046 49.7336 30.4909 49.7349 30.6706 49.7349C35.6257 49.7369 40.5808 49.7366 45.5353 49.7364L50.4942 49.7362C50.5227 49.7362 50.5512 49.7365 50.5797 49.7368C50.7484 49.7386 50.9173 49.7404 51.0823 49.6794C51.459 49.5408 51.6229 49.2702 51.5991 48.8769C51.5766 48.4901 51.348 48.2776 50.9898 48.2023C50.8643 48.1762 50.7314 48.1782 50.5996 48.1802H50.5995L50.5993 48.1802C50.5646 48.1807 50.5299 48.1812 50.4955 48.1812H40.6346ZM40.5738 54.9398C43.878 54.9398 47.1821 54.9398 50.4863 54.9385C50.5183 54.9385 50.5504 54.9388 50.5825 54.9392H50.5826H50.5827H50.5828C50.7165 54.9406 50.8507 54.9421 50.9806 54.9187C51.3691 54.8448 51.5898 54.6019 51.5978 54.2019C51.607 53.7782 51.3771 53.5221 50.974 53.431C50.8717 53.4081 50.7626 53.4121 50.6541 53.4161C50.6124 53.4176 50.5709 53.4191 50.5299 53.4191H30.6561C30.6192 53.4191 30.5821 53.4184 30.545 53.4177H30.545H30.5449C30.4494 53.4158 30.3538 53.4139 30.2596 53.4244C29.8631 53.4706 29.5604 53.8072 29.5591 54.19C29.5578 54.5939 29.834 54.8883 30.2662 54.9306C30.3781 54.9416 30.4922 54.9404 30.6057 54.9392H30.6059H30.6061H30.6062H30.6064H30.6066C30.6417 54.9388 30.6767 54.9385 30.7116 54.9385C33.9999 54.9398 37.2869 54.9398 40.5738 54.9398ZM40.6333 58.6452L38.0937 58.645C35.5537 58.6447 33.0133 58.6445 30.4737 58.6465C29.916 58.6465 29.5684 58.9448 29.5591 59.4002C29.5499 59.8675 29.8816 60.1526 30.4499 60.1658C30.5046 60.1667 30.5599 60.1664 30.6149 60.1661L30.6971 60.1658H50.4704C50.5124 60.1658 50.5547 60.167 50.597 60.1681H50.5971C50.7212 60.1713 50.8455 60.1746 50.9647 60.15C51.3704 60.0681 51.607 59.8147 51.5965 59.391C51.5859 58.9725 51.3586 58.7164 50.9396 58.6583C50.8138 58.641 50.6855 58.6426 50.5574 58.6442H50.5574C50.52 58.6447 50.4826 58.6452 50.4453 58.6452C47.1742 58.6438 43.9031 58.6438 40.6333 58.6452ZM42.7678 40.9725C42.5074 41.1935 42.2497 41.4111 41.9943 41.6268C41.4017 42.1271 40.8213 42.6171 40.2487 43.1162C39.8852 43.433 39.8747 43.8633 40.18 44.2039C40.4787 44.5366 40.8672 44.5814 41.232 44.2686C42.2708 43.3776 43.2991 42.476 44.3181 41.5612C44.7132 41.2061 44.7542 40.6279 44.3762 40.2847C43.3136 39.3211 42.2272 38.3865 41.1382 37.4519C40.8672 37.2196 40.5553 37.2499 40.2751 37.4664C39.9989 37.6803 39.9156 37.972 40.0002 38.3046C40.049 38.5005 40.1939 38.6313 40.3379 38.7612L40.3379 38.7612L40.355 38.7766L40.3861 38.8049C40.9707 39.338 41.5568 39.871 42.1469 40.4077L42.1521 40.4124L42.1547 40.4148L42.7678 40.9725ZM33.4157 37.3173C33.2029 37.3291 33.0351 37.4202 32.8818 37.5562C32.4972 37.8956 32.1113 38.2334 31.7254 38.5713L31.7254 38.5714C31.1072 39.1126 30.489 39.6538 29.8763 40.2015C29.4349 40.5962 29.4296 41.0424 29.8644 41.4305C30.6121 42.0989 31.3679 42.7586 32.1235 43.4181C32.3856 43.6469 32.6478 43.8758 32.9095 44.1049C33.1382 44.3042 33.3866 44.3768 33.6827 44.2514C34.2867 43.9967 34.3792 43.3776 33.8519 42.9076C33.4532 42.5531 33.0436 42.2102 32.6341 41.8673L32.634 41.8672L32.6339 41.8672C32.4244 41.6917 32.2148 41.5163 32.0068 41.3394C31.3884 40.8124 31.3896 40.8114 32.0248 40.2786L32.0333 40.2715C32.6518 39.7527 33.2703 39.234 33.8783 38.7033C34.1439 38.4723 34.2814 38.1753 34.1439 37.8202C34.0171 37.4928 33.7369 37.3648 33.4157 37.3173ZM35.7736 45.2085C36.063 45.2058 36.293 44.9841 36.4291 44.6276C36.7607 43.76 37.0933 42.8925 37.4259 42.025L37.4261 42.0243L37.4264 42.0236L37.4266 42.0229L37.4269 42.0222L37.4272 42.0216L37.4274 42.0209L37.4278 42.02C37.9932 40.5451 38.5587 39.0699 39.12 37.5931C39.2958 37.1311 39.1094 36.6836 38.7076 36.5226C38.3032 36.3615 37.8684 36.5556 37.682 37.0374C36.7569 39.424 35.8383 41.8133 34.9343 44.2079C34.7334 44.7385 35.0929 45.2005 35.7736 45.2085ZM67.0057 49.7342H67.0056H67.0055H67.0054C66.2702 49.7339 65.535 49.7335 64.7999 49.7335C64.0607 49.7335 63.3215 49.7339 62.5823 49.7342H62.5812H62.5811H62.5811H62.581C60.0681 49.7354 57.5554 49.7365 55.0434 49.7243C54.6945 49.7216 54.6099 49.8154 54.6099 50.1599C54.6205 55.9311 54.6205 61.7037 54.6086 67.4749C54.6072 67.8498 54.7103 67.9382 55.0778 67.9382C61.5658 67.9263 68.0551 67.925 74.5431 67.9395C74.9357 67.9408 74.9925 67.8168 74.9925 67.4656C74.9819 61.7116 74.9806 55.9562 74.9951 50.2008C74.9951 49.8061 74.8855 49.723 74.5075 49.7243C72.0076 49.7365 69.5069 49.7354 67.0067 49.7342H67.0057ZM71.9976 58.1052V58.7982V59.1969C71.9976 60.3519 71.9434 60.4193 70.8042 60.6582C70.4275 60.7361 70.1658 61.3657 70.372 61.6984C70.4129 61.7641 70.4567 61.8285 70.5005 61.8929C70.5403 61.9512 70.5801 62.0097 70.6178 62.0693C70.9138 62.534 70.8927 62.864 70.5094 63.2653C70.1328 63.66 69.7442 64.0414 69.3543 64.4216C68.9155 64.8506 68.6128 64.8718 68.0802 64.5299C68.0442 64.5066 68.0088 64.4826 67.9737 64.4587C67.722 64.2875 67.4843 64.126 67.1062 64.3345C66.8432 64.4797 66.7163 64.6249 66.6462 64.8942C66.3859 65.8895 66.3343 65.9225 65.2889 65.9225H64.2487C63.2165 65.9225 63.0751 65.8235 62.9112 64.8308C62.865 64.5563 62.7381 64.4586 62.5173 64.3424C62.1935 64.1721 61.9517 64.2236 61.6636 64.4256C60.9631 64.9179 60.7186 64.8836 60.1252 64.2922L60.1219 64.289L60.1213 64.2884C59.8067 63.9742 59.4934 63.6613 59.1802 63.3458C58.6872 62.8494 58.6687 62.5643 59.0533 61.9584C59.0792 61.9174 59.1077 61.8783 59.136 61.8395L59.136 61.8395L59.136 61.8394L59.1361 61.8394L59.1361 61.8393C59.2582 61.6719 59.377 61.509 59.2687 61.2166C59.1207 60.8192 58.9251 60.6621 58.5154 60.6014C57.7502 60.4892 57.6206 60.2965 57.6193 59.5137C57.618 59.0517 57.618 58.5897 57.6193 58.1277C57.6206 57.3541 57.836 57.0914 58.6 56.9806C58.9449 56.9304 59.1987 56.838 59.3242 56.4525C59.4115 56.1859 59.4035 56.0064 59.2489 55.7767C58.6766 54.9292 58.7004 54.7814 59.43 54.0527C59.5251 53.9577 59.6198 53.8625 59.7145 53.7673L59.7149 53.7668L59.7156 53.7661L59.7157 53.766C59.9233 53.5573 60.1307 53.3487 60.3419 53.1432C60.7648 52.7327 61.0622 52.7208 61.5777 53.0257C61.6369 53.0608 61.6924 53.1037 61.748 53.1466C61.9331 53.2898 62.1188 53.4333 62.442 53.2871C62.7989 53.1273 62.9694 52.9623 63.0222 52.5637C63.124 51.7941 63.346 51.6449 64.1456 51.6436H65.4832C66.3185 51.6436 66.5233 51.8086 66.6647 52.631C66.7189 52.9386 66.8233 53.1432 67.1551 53.2673C67.4366 53.3716 67.6243 53.365 67.8688 53.1973C68.6723 52.6455 68.8653 52.6746 69.5578 53.3636L69.7283 53.533C69.9529 53.7561 70.1772 53.9788 70.3997 54.2032C70.9337 54.7404 70.9562 54.9939 70.5425 55.6249C70.5375 55.6325 70.5325 55.64 70.5275 55.6475C70.5231 55.654 70.5188 55.6605 70.5144 55.667L70.4918 55.7003L70.4917 55.7004C70.3448 55.9166 70.2137 56.1094 70.3667 56.4552C70.52 56.8023 70.709 56.9093 71.0328 56.9673C71.8628 57.1165 71.9963 57.2828 71.9976 58.1052ZM64.7919 69.4642C65.5749 69.4642 66.3578 69.4649 67.1407 69.4656H67.1408H67.141H67.1411C69.5771 69.4678 72.0128 69.47 74.4493 69.451C74.9224 69.447 75.0123 69.5936 74.9951 70.0213C74.9751 70.5291 74.9789 71.0379 74.9826 71.5468V71.5469V71.5469V71.547C74.985 71.8793 74.9874 72.2117 74.9832 72.5438C74.9634 73.9444 73.9404 74.9899 72.5408 74.9925C67.3903 75.0031 62.2398 75.0018 57.0893 74.9938C55.7016 74.9912 54.6826 74.0065 54.6297 72.6165C54.6119 72.1558 54.6147 71.6947 54.6174 71.2337V71.2335C54.62 70.8043 54.6226 70.375 54.6086 69.946C54.5967 69.5724 54.6826 69.451 55.0857 69.4536C57.5745 69.4679 60.0634 69.4665 62.5523 69.465C63.2988 69.4646 64.0454 69.4642 64.7919 69.4642ZM65.5161 72.1469H65.5162C66.0665 72.1489 66.6171 72.1508 67.167 72.1426C67.6811 72.1346 67.9943 71.8191 67.9851 71.3558C67.9758 70.9004 67.6969 70.6311 67.1749 70.6285C65.6259 70.6192 64.0769 70.6192 62.5279 70.6285C61.9728 70.6311 61.6966 70.8978 61.6939 71.3822C61.6913 71.8614 61.9807 72.1373 62.5213 72.1439C63.0417 72.1493 63.562 72.1479 64.0828 72.1465H64.0831H64.0833H64.0836C64.3205 72.1459 64.5575 72.1452 64.7946 72.1452C65.0349 72.1452 65.2753 72.1461 65.5158 72.1469H65.516H65.5161ZM62.6028 48.1818C63.3387 48.1821 64.0746 48.1825 64.8105 48.1825C65.5424 48.1825 66.2743 48.1821 67.0063 48.1818H67.0063H67.0063H67.0074C69.496 48.1806 71.9848 48.1795 74.4744 48.1917C74.8604 48.193 75.0216 48.1402 74.9978 47.6993C74.9686 47.1586 74.9744 46.616 74.9802 46.0737V46.0736V46.0735V46.0734V46.0733C74.983 45.8069 74.9859 45.5405 74.9846 45.2744C74.9767 43.6547 73.9801 42.6581 72.3532 42.6568C67.315 42.6542 62.2755 42.6528 57.2374 42.6568C55.6342 42.6581 54.639 43.6415 54.6192 45.2388C54.615 45.5628 54.6176 45.8871 54.6202 46.2113V46.2115C54.6242 46.7127 54.6281 47.2138 54.6073 47.7139C54.5914 48.1112 54.7183 48.193 55.0963 48.1917C57.5981 48.1795 60.0999 48.1806 62.6018 48.1818H62.6028ZM65.5215 46.9714C65.3038 46.971 65.0862 46.9707 64.8686 46.9707C64.5397 46.9701 64.2106 46.9706 63.8814 46.971H63.8813H63.8795C63.4672 46.9716 63.0549 46.9721 62.643 46.9707C62.0086 46.9654 61.6979 46.7146 61.694 46.2156C61.69 45.7061 62.0297 45.4183 62.6654 45.4157C64.1338 45.4117 65.6022 45.4104 67.0705 45.417C67.6811 45.4196 67.9957 45.6995 67.9891 46.2051C67.9825 46.704 67.6679 46.9654 67.0467 46.9694C66.5378 46.9731 66.0296 46.9722 65.5216 46.9714H65.5215ZM62.0111 62.5274C61.7609 62.5002 61.5793 62.6432 61.4016 62.7832L61.3913 62.7914C61.1917 62.9498 61.0476 63.0237 60.8203 62.7835C60.6115 62.563 60.6696 62.4297 60.8243 62.2554C61.1811 61.8528 61.1732 61.4383 60.9088 60.9842C60.7529 60.7163 60.5903 60.4285 60.5322 60.1302C60.4225 59.5639 60.1119 59.2458 59.5541 59.1784C59.2753 59.1454 59.2158 59.0121 59.2131 58.7547C59.2105 58.4986 59.2647 58.3508 59.5449 58.3362C60.2017 58.3059 60.5546 57.9666 60.6498 57.3066C60.6855 57.0571 60.8361 56.8142 60.9762 56.5938C61.2604 56.145 61.2683 55.7212 60.9009 55.3305C60.6683 55.0837 60.7687 54.9332 60.971 54.7339C61.1849 54.5243 61.2671 54.6627 61.3415 54.7879C61.3622 54.8228 61.3823 54.8567 61.4045 54.8817C61.6847 55.1946 62.0085 55.1879 62.3468 55.0348C62.444 54.9909 62.5405 54.9457 62.637 54.9006L62.6373 54.9005C63.0014 54.7303 63.3648 54.5604 63.7597 54.454C64.1866 54.3392 64.3201 53.963 64.3624 53.5722C64.3967 53.2501 64.5527 53.1868 64.8514 53.1788C65.1625 53.1703 65.1718 53.3351 65.1828 53.5318C65.1837 53.5482 65.1846 53.5647 65.1857 53.5815C65.2188 54.1082 65.4739 54.4303 66.0157 54.5306C66.3726 54.5966 66.7056 54.7563 67.0136 54.949C67.4299 55.2104 67.8211 55.1919 68.1978 54.8791C68.3881 54.7207 68.5375 54.6283 68.7754 54.8645C69.0199 55.1074 68.9036 55.2592 68.7502 55.4414C68.4317 55.8216 68.4489 56.2123 68.6789 56.6308C68.8758 56.9911 69.0489 57.3621 69.1441 57.7686C69.2617 58.2716 69.6543 58.4194 70.1155 58.4471C70.1344 58.4482 70.1532 58.449 70.1716 58.4499C70.3781 58.4591 70.552 58.4668 70.5411 58.8049C70.5305 59.1098 70.438 59.2167 70.1565 59.2167C69.5604 59.218 69.2617 59.5507 69.1547 60.1091C69.0926 60.4364 68.9432 60.7334 68.7687 61.012C68.4978 61.4436 68.5137 61.8476 68.8441 62.2383L68.8465 62.2411C68.9868 62.4062 69.1044 62.5445 68.8705 62.7703C68.6577 62.9749 68.5163 62.992 68.3062 62.8019C67.9083 62.4403 67.4868 62.4403 67.0414 62.7293C66.7638 62.9089 66.4585 63.0501 66.1347 63.1108C65.6113 63.2085 65.3179 63.4936 65.2492 64.0243C65.2148 64.2883 65.1606 64.5008 64.7773 64.4942C64.4237 64.4874 64.4152 64.2852 64.4069 64.0886L64.4069 64.0884C64.4056 64.0588 64.4044 64.0292 64.402 64.0005C64.3676 63.5953 64.1985 63.2943 63.8006 63.1887C63.3182 63.0593 62.8662 62.8745 62.438 62.6224C62.3058 62.5432 62.1631 62.5181 62.0111 62.5274ZM64.8487 55.5747C63.0856 55.5708 61.6252 57.0043 61.608 58.756C61.5908 60.5156 63.0697 62.0139 64.8315 62.0205C66.5986 62.0271 68.0643 60.55 68.059 58.7719C68.0524 57.0056 66.6197 55.5787 64.8487 55.5747ZM63.1623 58.7309C63.1385 59.7632 63.7649 60.4377 64.7707 60.4641C65.7183 60.4892 66.5008 59.7671 66.5378 58.8365C66.5721 57.9283 65.7937 57.1152 64.8712 57.0954C63.9658 57.0769 63.1821 57.8267 63.1623 58.7309Z" fill="#141414"/>
<defs>
<linearGradient id="paint0_linear_77_945" x1="50" y1="0" x2="50" y2="100" gradientUnits="userSpaceOnUse">
<stop stop-color="#60F9D8"/>
<stop offset="1" stop-color="#34E5F3"/>
</linearGradient>
</defs>
</svg>
