<svg width="100" height="100" viewBox="0 0 100 100" fill="none" xmlns="http://www.w3.org/2000/svg">
<circle cx="50" cy="50" r="50" fill="url(#paint0_linear_77_943)"/>
<path fill-rule="evenodd" clip-rule="evenodd" d="M52.645 25.0052C53.0224 25.2734 53.1412 25.638 53.1321 26.0949C53.1142 27.0156 53.1193 27.9362 53.1244 28.8569L53.1268 29.3173C53.1295 29.9461 53.358 30.2364 53.9809 30.3731C56.3276 30.8887 58.5018 31.8027 60.5077 33.1242C61.0692 33.4939 61.427 33.4535 61.901 32.9874C62.3227 32.5737 62.741 32.1562 63.1592 31.7387L63.1594 31.7386L63.1597 31.7383C63.4796 31.4189 63.7996 31.0996 64.121 30.7819C64.6473 30.2625 65.0809 30.2612 65.5914 30.7833C66.503 31.7154 67.4118 32.6502 68.3155 33.5889C68.8313 34.1253 68.8248 34.5342 68.3011 35.0601C67.9221 35.44 67.5418 35.8182 67.1614 36.1964L67.1611 36.1968L67.1607 36.1972L67.1603 36.1975L67.1596 36.1982L67.1585 36.1994L67.1574 36.2005L67.1567 36.2012L67.1563 36.2016L67.1559 36.2019L67.1556 36.2023C66.7752 36.5805 66.3949 36.9587 66.0159 37.3386C65.5131 37.8424 65.4674 38.1718 65.8435 38.7655C67.1402 40.8187 68.0844 43.0111 68.5166 45.4093C68.6159 45.9627 68.9332 46.21 69.5117 46.2139C70.1284 46.219 70.745 46.218 71.3617 46.2171C71.855 46.2163 72.3484 46.2155 72.8417 46.2178C73.7349 46.2217 74 46.4952 74 47.3922V51.1027C74 51.9581 73.7297 52.2211 72.8508 52.2211C72.4528 52.2216 72.0546 52.2213 71.6564 52.221H71.6563H71.6563H71.6562H71.6562H71.6561C71.0588 52.2205 70.4613 52.2201 69.8643 52.2224C69.1278 52.2263 68.8666 52.4307 68.706 53.1364C68.1862 55.4226 67.2943 57.55 65.9937 59.5068C65.5771 60.1344 65.6176 60.4859 66.1425 61.0132C66.4719 61.3439 66.8029 61.6727 67.1339 62.0015L67.1349 62.0025L67.1359 62.0035L67.137 62.0046L67.138 62.0056L67.139 62.0066L67.1398 62.0074C67.5234 62.3885 67.9071 62.7695 68.2881 63.1536C68.8352 63.703 68.8326 64.1261 68.2868 64.6521C67.3609 65.5466 66.4337 66.441 65.5026 67.3289C64.9542 67.8523 64.5219 67.8471 63.9878 67.3172C63.584 66.9167 63.1813 66.515 62.7785 66.1133C62.4428 65.7784 62.107 65.4435 61.7705 65.1091C61.205 64.5467 60.8942 64.5102 60.2243 64.9255C59.3938 65.4398 58.5371 65.9033 57.6452 66.3069C57.4127 66.4123 57.2861 66.3668 57.0562 66.2288C56.3876 65.8252 56.4803 65.3161 56.6436 64.7003C57.1294 62.858 58.0252 61.2723 59.4695 60.0133C62.1557 57.6698 63.8664 54.7807 64.4175 51.2434C65.4556 44.5761 61.8057 38.1705 55.4226 35.9325C49.392 33.8194 43.8421 34.8258 39.2519 39.4269C36.285 42.4018 35.1279 46.1449 35.474 50.3151C35.7939 54.1766 37.5177 57.3547 40.4167 59.9039C42.0569 61.3465 43.052 63.1353 43.4764 65.264C43.5378 65.5739 43.5378 65.7991 43.227 65.945C43.1983 65.958 43.1682 65.9814 43.1526 66.0074C42.7223 66.7412 42.2073 66.4724 41.6537 66.1834L41.626 66.1689C40.8607 65.7692 40.1099 65.35 39.3825 64.8852C38.8118 64.5206 38.4684 64.561 37.993 65.031C37.5697 65.4486 37.1489 65.8683 36.7282 66.288C36.4223 66.5932 36.1164 66.8984 35.8096 67.2026C35.2546 67.752 34.8119 67.7481 34.2661 67.1883L34.265 67.1872C33.3669 66.2658 32.4688 65.3444 31.576 64.4178C31.0654 63.8892 31.0719 63.4712 31.5942 62.9492C31.9362 62.6065 32.2792 62.2651 32.6222 61.9237C33.0416 61.5064 33.4609 61.0891 33.8782 60.6695C34.3692 60.1773 34.4162 59.8271 34.0467 59.2399C32.7526 57.1854 31.8032 54.9969 31.3775 52.5948C31.2795 52.0441 30.9269 51.785 30.3275 51.7811C29.7263 51.7768 29.125 51.7776 28.5237 51.7783C28.015 51.7789 27.5063 51.7795 26.9976 51.7772C26.2793 51.7732 26.0038 51.4894 26.0025 50.7616C25.9999 49.4271 25.9986 48.0926 26.0025 46.7581C26.0038 46.1111 26.308 45.8012 26.9558 45.796C27.6022 45.7913 28.2486 45.7923 28.895 45.7932C29.3259 45.7938 29.7569 45.7944 30.1878 45.7934C30.8447 45.7908 31.1463 45.5604 31.2874 44.9198C31.8006 42.5958 32.7147 40.4437 34.0323 38.4582C34.4215 37.8711 34.3705 37.5039 33.8599 36.9922C33.5035 36.635 33.1452 36.279 32.7868 35.923L32.7865 35.9227C32.428 35.5666 32.0696 35.2105 31.7131 34.8531C31.1672 34.3063 31.1672 33.8858 31.7144 33.3546C32.6389 32.4589 33.5674 31.567 34.4972 30.6765C35.0548 30.1427 35.4622 30.1453 36.0094 30.6869C36.3861 31.0592 36.7612 31.4331 37.1362 31.8071L37.1364 31.8072C37.5115 32.1812 37.8866 32.5552 38.2634 32.9276C38.7922 33.4496 39.1148 33.4978 39.7325 33.1111C41.7944 31.8222 43.9935 30.8887 46.4003 30.4578C46.9553 30.3588 47.1956 30.0255 47.2008 29.4045C47.202 29.2336 47.2035 29.0626 47.205 28.8917V28.8916C47.2128 27.9885 47.2206 27.0855 47.1942 26.1835C47.1799 25.6718 47.3105 25.276 47.7492 25C49.3803 25.0052 51.0126 25.0052 52.645 25.0052ZM46.5726 75C45.8374 74.5053 45.5371 73.4937 45.9001 72.6617C46.0934 72.2165 46.4669 71.9951 46.9474 71.9938C48.9833 71.9873 51.0191 71.9821 53.0537 71.9964C53.7445 72.0017 54.1598 72.4456 54.1937 73.1357C54.1967 73.1939 54.1951 73.2522 54.1936 73.3104C54.1917 73.3822 54.1899 73.4538 54.1963 73.5249C54.2629 74.185 54.0279 74.6863 53.4285 75H46.5726ZM52.9268 59.2657V59.2659V59.266V59.2661V59.2662C52.9256 59.6611 52.9244 60.056 52.9244 60.4507L52.9242 61.1631C52.9238 62.1134 52.9233 63.0644 52.9296 64.0154C52.93 64.1378 52.9178 64.2724 52.9055 64.4076L52.9055 64.4077C52.8756 64.7371 52.8453 65.0703 52.9962 65.2393C53.1581 65.4201 53.4587 65.3881 53.7683 65.3552C53.9356 65.3373 54.1056 65.3192 54.2577 65.3343C54.5567 65.3643 54.6638 65.2692 54.7239 64.9541C55.2018 62.4323 56.3654 60.2828 58.3203 58.585C58.8374 58.1345 59.3219 57.6541 59.7698 57.1346C64.1066 52.1 63.7018 44.3704 58.7852 40.0297C55.164 36.8334 50.8898 36.0769 46.3023 37.2904C40.1229 38.923 36.405 44.7128 37.3936 50.9973C37.8742 54.0529 39.3615 56.5709 41.7017 58.5967C43.4019 60.0679 44.495 61.9154 45.0957 64.0675C45.1332 64.2031 45.1481 64.3586 45.163 64.5131C45.1937 64.8317 45.224 65.146 45.4509 65.2731C45.6826 65.4029 45.9991 65.378 46.3192 65.3528C46.4807 65.3401 46.6431 65.3273 46.7959 65.3343C47.0558 65.346 47.1642 65.294 47.1629 64.9971C47.1511 61.987 47.1524 58.9769 47.1616 55.9668C47.1616 55.6986 47.0714 55.64 46.8259 55.6478C46.3206 55.6647 45.8139 55.6661 45.3085 55.6504C44.1894 55.614 43.2909 55.144 42.6706 54.2131C41.37 52.2589 42.6497 49.625 45.0029 49.392C47.7309 49.1225 48.9976 50.2473 48.9963 52.9398C48.9963 53.8134 48.9963 53.8134 49.8869 53.8134C49.972 53.8134 50.0573 53.8119 50.1427 53.8104L50.1428 53.8104H50.1429H50.1429H50.1429H50.1429C50.3353 53.8071 50.528 53.8038 50.7188 53.8173C50.976 53.8355 51.104 53.7873 51.0844 53.4853C51.0583 53.0804 51.0687 52.6716 51.0844 52.2654C51.1353 50.9569 51.8353 50.0351 53.0785 49.6042C53.5786 49.431 54.0945 49.3633 54.6168 49.3633C56.3941 49.3633 57.8097 50.595 57.9298 52.2328C58.0565 53.9553 56.8734 55.4031 55.117 55.6231C54.5711 55.6908 54.007 55.6856 53.4559 55.6413C52.9845 55.6036 52.9074 55.7832 52.9152 56.2038C52.9331 57.2241 52.93 58.245 52.9268 59.2657ZM50.0502 67.1636C50.5202 67.1636 50.9902 67.1632 51.4601 67.1629C52.5572 67.1621 53.6543 67.1613 54.7514 67.1649C55.672 67.1675 56.0546 67.5568 56.0599 68.476C56.0602 68.5286 56.0611 68.5814 56.062 68.6343C56.0647 68.7932 56.0674 68.9527 56.0546 69.11C56.005 69.7076 55.6211 70.0865 55.0204 70.1477C54.9877 70.1516 54.9551 70.1568 54.9224 70.1568C54.0728 70.1568 53.223 70.1573 52.3732 70.1578H52.3731H52.3729L52.3546 70.1578C49.9297 70.1593 47.5045 70.1609 45.08 70.1503C44.3527 70.1477 43.9635 69.7024 43.9439 68.9629C43.9407 68.8273 43.9419 68.6916 43.9432 68.556L43.9439 68.4747C43.9491 67.5555 44.3292 67.1675 45.2524 67.1636C46.3166 67.161 47.3815 67.1619 48.4465 67.1627H48.4466H48.4468H48.4504C48.9836 67.1632 49.5169 67.1636 50.0502 67.1636ZM51.0764 61.6846C51.0772 61.2898 51.0779 60.895 51.0779 60.5002C51.0779 60.0822 51.0771 59.6643 51.0762 59.2464V59.2462V59.246C51.0741 58.2005 51.0719 57.1546 51.0831 56.1074C51.0871 55.7676 51.04 55.6048 50.6457 55.6452C50.2422 55.6869 49.8295 55.6764 49.4234 55.6478C49.093 55.6244 48.9833 55.7051 48.9859 56.0631C49.0029 59.0068 49.0003 61.9505 48.9885 64.8942C48.9872 65.2171 49.0421 65.3629 49.4051 65.3343C49.8269 65.3004 50.2539 65.307 50.677 65.333C50.9878 65.3525 51.0897 65.2692 51.0858 64.9398C51.0723 63.8553 51.0744 62.7701 51.0764 61.6847V61.6846V61.6846ZM54.021 53.8056C53.4696 53.8102 53.1964 53.8124 53.0598 53.6769C52.9256 53.5439 52.9232 53.2781 52.9183 52.7513L52.9179 52.7094C52.9114 52.0779 53.1203 51.5936 53.7093 51.3228C54.3191 51.0416 55.2802 51.1692 55.6968 51.5767C56.0833 51.9543 56.193 52.4177 56.0259 52.9203C55.8509 53.4463 55.4526 53.7418 54.9028 53.8004C54.7026 53.8219 54.4999 53.8163 54.2973 53.8107H54.2973C54.2052 53.8082 54.1132 53.8056 54.0214 53.8056L54.021 53.8056ZM45.792 53.8123C45.8738 53.8109 45.9556 53.8095 46.0372 53.8095V53.8147H46.2318C47.1188 53.8147 47.1189 53.8123 47.1609 52.9972C47.1628 52.9614 47.1647 52.9241 47.1668 52.8851C47.2334 51.6327 46.4394 51.0038 45.1061 51.2291C44.397 51.3488 43.9674 51.9126 44.0118 52.6091C44.0523 53.2588 44.5694 53.7626 45.2576 53.8069C45.4349 53.8185 45.6135 53.8154 45.792 53.8123Z" fill="#141414"/>
<defs>
<linearGradient id="paint0_linear_77_943" x1="50" y1="0" x2="50" y2="100" gradientUnits="userSpaceOnUse">
<stop stop-color="#60F9D8"/>
<stop offset="1" stop-color="#34E5F3"/>
</linearGradient>
</defs>
</svg>
