<svg width="100" height="100" viewBox="0 0 100 100" fill="none" xmlns="http://www.w3.org/2000/svg">
<circle cx="50" cy="50" r="50" fill="url(#paint0_linear_77_946)"/>
<path fill-rule="evenodd" clip-rule="evenodd" d="M44.0984 38.4856L40.8178 38.4854C35.7122 38.4848 30.6065 38.4843 25.4999 38.4958C25.095 38.4971 24.9987 38.4053 25 38.0074C25.0182 34.4854 25.0169 30.962 25.0013 27.4399C25 27.0816 25.0872 27 25.4504 27C37.8811 27.0102 50.3131 27.0102 62.7438 27C63.107 27 63.1955 27.0816 63.1929 27.4399C63.1881 28.5204 63.1848 29.6008 63.1829 30.6812H69.3705C69.8783 29.768 70.8657 29.1485 72.0006 29.1485C73.6542 29.1485 74.9947 30.4638 74.9947 32.0863C74.9947 33.1999 74.3632 34.1687 73.4325 34.667V43.1729C74.3632 43.6711 74.9947 44.64 74.9947 45.7536C74.9947 46.8671 74.3632 47.836 73.4325 48.3342V59.5277C74.1658 60.5818 74.6778 61.8157 74.9049 63.1749L74.906 63.1819C74.9159 63.2442 74.9246 63.2995 74.9999 63.3167C74.9986 64.049 74.9986 64.7813 74.9986 65.5136V65.5201C74.8494 65.7084 74.8177 65.93 74.7862 66.1508L74.7862 66.1508L74.7862 66.1509L74.7862 66.1509L74.7862 66.151L74.7862 66.1511L74.7862 66.1511L74.7861 66.1512C74.7715 66.2538 74.7569 66.3562 74.7305 66.4551C73.7359 70.2219 70.2393 72.9694 66.2858 72.9822C58.3788 73.0077 50.4718 73.0039 42.5648 72.9834C39.4536 72.9758 36.8631 70.3981 36.8253 67.3568C36.7863 64.2261 39.2831 61.6166 42.4334 61.5055C42.7054 61.4965 42.8356 61.4569 42.9267 61.1504C43.7716 58.2726 45.7086 56.5137 48.6858 55.8751C48.9488 55.8189 49.0568 55.7167 49.1518 55.4868C50.5916 51.9844 53.9762 49.7823 57.8178 50.0339C61.4016 50.2689 63.9504 52.0968 65.4254 55.3194C65.5725 55.6413 65.7209 55.7575 66.0906 55.7588C67.73 55.7645 69.2569 56.1815 70.5686 56.9222V48.3342C70.0633 48.0637 69.6462 47.6544 69.3704 47.1586H63.1837C63.1839 47.616 63.1839 48.0734 63.1837 48.5308C63.1837 48.5567 63.177 48.5825 63.1678 48.6179L63.1678 48.618L63.1678 48.6181C63.1624 48.639 63.1561 48.6632 63.1498 48.6927C62.0902 48.1185 61.0019 47.6792 59.8381 47.439C56.1541 46.6799 52.8541 47.5019 49.9225 49.8038C49.7038 49.9759 49.5007 50.0542 49.2247 50.0542C41.3034 50.0478 33.3821 50.0478 25.4608 50.0568C25.1145 50.0568 24.9986 50.0016 25.0012 49.6239C25.0221 47.0074 25.0168 44.3922 25.0051 41.7757C25.0038 41.4815 25.052 41.371 25.3918 41.371C37.868 41.3813 50.3429 41.38 62.8192 41.3762C63.0587 41.3762 63.1967 41.3788 63.1941 41.6935C63.188 42.5783 63.1853 43.4634 63.1841 44.3485H69.3705C69.6462 43.8526 70.0633 43.4434 70.5686 43.1729V34.667C70.0633 34.3964 69.6462 33.9872 69.3704 33.4913H63.1814C63.1823 35.0126 63.1862 36.5337 63.1929 38.0546C63.1942 38.4129 63.107 38.4946 62.7438 38.4946C57.6945 38.4842 52.6453 38.4848 47.5953 38.4854H47.5952H47.5951H47.595H47.5949H47.5948H47.5947H47.5945L44.0984 38.4856ZM33.9049 33.7538L33.9049 33.7538C33.9456 33.3879 33.9862 33.0221 33.8183 32.8416C33.6252 32.6331 33.2452 32.675 32.8646 32.717L32.8645 32.717C32.696 32.7356 32.5272 32.7542 32.3746 32.7511C32.2547 32.7484 32.1236 32.7361 31.991 32.7236H31.991H31.991H31.991H31.9909H31.9909H31.9909H31.9909C31.6239 32.6891 31.2449 32.6535 31.0585 32.8174C30.8551 32.9973 30.8962 33.343 30.9376 33.6901C30.956 33.845 30.9745 34.0002 30.9713 34.1411C30.9682 34.267 30.9544 34.4051 30.9405 34.5448L30.9405 34.5448C30.902 34.9311 30.8622 35.3301 31.0429 35.5221C31.2386 35.7298 31.6175 35.6882 31.9977 35.6465C32.1661 35.628 32.3348 35.6095 32.4878 35.6126C32.6077 35.6153 32.7388 35.6277 32.8715 35.6401C33.2385 35.6746 33.6175 35.7102 33.8039 35.5463C34.0028 35.3696 33.9566 35.035 33.9098 34.6961C33.8874 34.5336 33.8648 34.3702 33.869 34.2227C33.869 34.077 33.887 33.9154 33.9049 33.7538ZM38.2964 32.7728C38.1386 32.7782 37.9632 32.7549 37.7892 32.7318C37.4333 32.6845 37.0827 32.6379 36.8983 32.8391C36.724 33.0286 36.7624 33.414 36.7996 33.7868C36.813 33.9208 36.8262 34.0532 36.8293 34.1742C36.8329 34.3204 36.814 34.4816 36.7952 34.6425C36.7533 35.001 36.7115 35.358 36.9191 35.5438C37.1105 35.7144 37.504 35.6769 37.8852 35.6404H37.8852H37.8853H37.8853H37.8853H37.8853H37.8853H37.8853C38.0225 35.6273 38.158 35.6144 38.2821 35.6114C38.4313 35.6078 38.5958 35.6263 38.7601 35.6447C39.1261 35.6858 39.4906 35.7267 39.6802 35.5234C39.8544 35.3358 39.816 34.9504 39.7789 34.577C39.7655 34.4426 39.7523 34.3097 39.7492 34.1882C39.7455 34.0421 39.7644 33.8806 39.7832 33.7195C39.8251 33.3604 39.8669 33.003 39.6593 32.82C39.4797 32.6617 39.1193 32.7002 38.7589 32.7387C38.5995 32.7558 38.4401 32.7728 38.2964 32.7728ZM45.6111 34.215C45.6111 34.1002 45.61 33.9854 45.609 33.8706C45.6065 33.603 45.604 33.3355 45.615 33.0686C45.6241 32.8365 45.5785 32.7333 45.3025 32.7409C44.5384 32.7613 43.7743 32.7549 43.0088 32.7434C42.7719 32.7396 42.6664 32.7792 42.6742 33.0495C42.6951 33.798 42.6886 34.5466 42.6769 35.2964C42.6729 35.5285 42.7133 35.6318 42.9893 35.6241C43.7534 35.6037 44.5189 35.6024 45.2817 35.6241C45.5811 35.633 45.628 35.5183 45.615 35.2671C45.6032 35.0235 45.6059 34.7788 45.6087 34.5341V34.534V34.534V34.534V34.5339V34.5339V34.5339V34.5339V34.5338C45.6099 34.4275 45.6111 34.3212 45.6111 34.215ZM32.7439 47.1568C32.629 47.1579 32.5141 47.159 32.3992 47.159C32.2903 47.159 32.1812 47.1574 32.072 47.1559C31.8066 47.1522 31.5409 47.1485 31.2771 47.1667C31.005 47.1834 30.9569 47.0781 30.9608 46.8391C30.9751 46.0851 30.979 45.3311 30.9595 44.5771C30.953 44.31 31.0493 44.2612 31.2914 44.265C32.0556 44.2791 32.8197 44.283 33.5838 44.2637C33.8546 44.2573 33.9041 44.3524 33.9002 44.5913C33.8859 45.3453 33.8819 46.0993 33.9015 46.8533C33.908 47.1192 33.813 47.1744 33.5695 47.1641C33.2948 47.1514 33.0195 47.1541 32.7439 47.1568ZM39.7673 45.1749C39.7439 45.345 39.7203 45.5169 39.7282 45.6715C39.7282 45.8186 39.7463 45.9817 39.7643 46.1447C39.805 46.5126 39.8457 46.8802 39.6788 47.0626C39.4861 47.2732 39.1072 47.2312 38.7274 47.1891C38.558 47.1703 38.3884 47.1516 38.2351 47.1551C38.1145 47.1579 37.9828 47.1704 37.8497 47.1831C37.4828 47.2182 37.1049 47.2542 36.9177 47.0883C36.7138 46.9084 36.7547 46.5608 36.7959 46.2119C36.8143 46.0553 36.8328 45.8984 36.8292 45.7563C36.8261 45.6288 36.8121 45.4892 36.798 45.3479C36.7591 44.9597 36.7191 44.5592 36.8995 44.3652C37.0939 44.1547 37.4721 44.1966 37.8513 44.2387C38.0204 44.2575 38.1898 44.2763 38.3431 44.2727C38.4633 44.27 38.5946 44.2574 38.7274 44.2448C39.094 44.2097 39.4723 44.1736 39.6605 44.3395C39.8582 44.5132 39.8132 44.8404 39.7673 45.1749ZM45.626 45.29L45.626 45.29C45.6081 45.4524 45.5901 45.6148 45.5901 45.7614C45.5837 45.9115 45.6058 46.0785 45.6277 46.2442C45.6725 46.5835 45.7167 46.9179 45.5146 47.0922C45.3245 47.2571 44.9472 47.2201 44.5808 47.1841L44.5808 47.1841C44.4479 47.1711 44.3165 47.1582 44.1959 47.1551C44.0411 47.1507 43.8701 47.1697 43.6994 47.1887H43.6994H43.6994H43.6994H43.6993H43.6993H43.6993H43.6993C43.3218 47.2306 42.9463 47.2724 42.7536 47.0601C42.5742 46.8623 42.6151 46.463 42.6549 46.0752C42.6694 45.934 42.6837 45.7943 42.6872 45.6664C42.6912 45.5238 42.6725 45.3662 42.6538 45.2091L42.6538 45.209C42.6123 44.8609 42.5711 44.5144 42.7783 44.3357C42.9684 44.1707 43.3457 44.2077 43.7121 44.2437L43.7122 44.2437C43.845 44.2567 43.9765 44.2696 44.097 44.2727C44.2509 44.2767 44.4212 44.2577 44.5912 44.2387C44.9703 44.1963 45.3479 44.154 45.5394 44.3678C45.7074 44.554 45.6667 44.9221 45.626 45.29ZM47.1666 52.8746C47.0507 53.1948 46.8841 53.3555 46.5938 53.4588C44.002 54.3759 42.074 56.0442 40.8335 58.4561C40.6903 58.7342 40.5223 58.8885 40.2125 58.9803C37.5321 59.78 35.6472 61.4586 34.5589 63.9853C34.4417 64.2582 34.3142 64.3641 33.9991 64.3628C31.1352 64.3488 28.2713 64.3501 25.4074 64.3615C25.0989 64.3628 25.0012 64.2978 25.0025 63.9763C25.0156 60.4052 25.0116 56.8341 25.0077 53.2629L25.0077 53.2624L25.0077 53.2467C25.0076 53.011 25.0075 52.8657 25.3501 52.867C31.3955 52.8755 37.4418 52.8751 43.5146 52.8748L47.1666 52.8746ZM33.8932 56.8537V56.8535C33.891 56.5731 33.8888 56.2924 33.8989 56.0123C33.9067 55.8082 33.8494 55.7368 33.6294 55.7393C32.8327 55.7521 32.036 55.7508 31.2381 55.7393C31.0311 55.7368 30.9569 55.7878 30.9595 56.0034C30.9725 56.784 30.9712 57.5645 30.9608 58.3464C30.9582 58.5505 31.0102 58.6219 31.2302 58.6194C32.0269 58.6066 32.8236 58.6079 33.6216 58.6181C33.8299 58.6206 33.9093 58.5709 33.8989 58.3541C33.888 58.0871 33.8904 57.8196 33.8929 57.5519C33.8939 57.4371 33.895 57.3222 33.895 57.2074C33.895 57.0897 33.8941 56.9719 33.8932 56.8541V56.854V56.8538V56.8537ZM38.3327 55.77C38.184 55.77 38.0191 55.7524 37.8543 55.7348C37.4811 55.6949 37.108 55.6551 36.9229 55.8197C36.7096 56.0084 36.7521 56.3788 36.7947 56.7509C36.8137 56.917 36.8328 57.0834 36.8292 57.2342C36.8264 57.3519 36.8137 57.4806 36.8008 57.6108C36.7653 57.9703 36.7287 58.3415 36.8969 58.525C37.0801 58.7248 37.4321 58.6847 37.7853 58.6444C37.9439 58.6263 38.1028 58.6081 38.2468 58.6117C38.376 58.6148 38.5175 58.6284 38.6607 58.6423L38.6607 58.6423C39.0541 58.6803 39.46 58.7196 39.6566 58.5428C39.87 58.3523 39.8275 57.9818 39.7848 57.6102C39.7658 57.4445 39.7468 57.2786 39.7504 57.1283C39.7531 57.0107 39.7659 56.882 39.7787 56.7518L39.7787 56.7518C39.8142 56.3923 39.8509 56.0211 39.6827 55.8376C39.5026 55.6404 39.1592 55.6854 38.8123 55.7308C38.6475 55.7524 38.482 55.7741 38.3327 55.77Z" fill="#141414"/>
<defs>
<linearGradient id="paint0_linear_77_946" x1="50" y1="0" x2="50" y2="100" gradientUnits="userSpaceOnUse">
<stop stop-color="#60F9D8"/>
<stop offset="1" stop-color="#34E5F3"/>
</linearGradient>
</defs>
</svg>
