<svg width="100" height="100" viewBox="0 0 100 100" fill="none" xmlns="http://www.w3.org/2000/svg">
<circle cx="50" cy="50" r="50" fill="url(#paint0_linear_77_944)"/>
<path fill-rule="evenodd" clip-rule="evenodd" d="M75 35.0582V26.1718C74.7956 25.5963 74.4167 25.1927 73.8269 25H26.1718C25.5885 25.1979 25.1953 25.5859 25 26.1718V35.0582C25.0513 35.0607 25.1024 35.0638 25.1535 35.0669C25.2645 35.0737 25.3751 35.0804 25.4857 35.0804C41.829 35.0817 58.171 35.0817 74.5143 35.0804C74.6264 35.0804 74.7379 35.0736 74.8492 35.0668C74.8995 35.0637 74.9497 35.0607 75 35.0582ZM38.0279 31.5194L37.1195 31.5193C36.6507 31.5193 36.182 31.5204 35.7134 31.5214C34.6201 31.5239 33.5271 31.5263 32.4334 31.5154C31.3019 31.5037 30.5806 30.5258 30.9595 29.5402C31.1847 28.9556 31.6235 28.6001 32.2537 28.5975C35.5062 28.5845 38.7601 28.5832 42.0126 28.5988C42.7547 28.6027 43.3316 29.2069 43.3797 29.9308C43.4305 30.6808 42.9735 31.3006 42.2365 31.4633C42.049 31.505 41.8511 31.5167 41.6571 31.5167C40.447 31.5198 39.2378 31.5196 38.0281 31.5194H38.028H38.0279ZM54.4927 30.0259C54.5031 29.2277 55.1607 28.5858 55.9653 28.5897C56.7687 28.5923 57.421 29.242 57.4223 30.0402C57.4249 30.8266 56.7609 31.5024 55.9744 31.5154C55.1763 31.5284 54.4823 30.8305 54.4927 30.0259ZM60.3532 30.0167C60.3676 29.2186 61.029 28.5819 61.8337 28.5897C62.637 28.5975 63.2842 29.2498 63.2829 30.0493C63.2803 30.837 62.6123 31.5089 61.8259 31.5154C61.0264 31.5206 60.3376 30.8214 60.3532 30.0167ZM66.2112 30.0402C66.2125 29.2433 66.8648 28.5936 67.6682 28.5897C68.4754 28.5858 69.1304 29.2251 69.1408 30.0246C69.1512 30.8305 68.4585 31.5271 67.659 31.5141C66.8726 31.5024 66.2086 30.8266 66.2112 30.0402ZM75 67.0883V37.9878C74.9492 37.9903 74.8984 37.9935 74.8475 37.9967C74.7368 38.0038 74.6259 38.0108 74.5143 38.0099C58.171 38.0112 41.829 38.0112 25.4857 38.0099C25.377 38.0099 25.2688 38.003 25.1609 37.996L25.1609 37.996L25.1608 37.996C25.1072 37.9925 25.0536 37.9891 25 37.9865V67.087C25.3906 67.9216 26.0468 68.1938 26.9557 68.1755C28.9145 68.1372 30.8743 68.1497 32.8343 68.1621H32.8344H32.8345C33.1361 68.1641 33.4377 68.166 33.7394 68.1677C34.0597 68.169 34.2276 68.1235 34.1703 67.755C34.1443 67.5818 34.1313 67.3774 34.199 67.2237C34.4932 66.5532 34.2263 66.2173 33.6469 65.8241C32.5037 65.0506 31.9451 63.884 31.9308 62.4948C31.9126 60.7552 31.9152 59.0144 31.9282 57.2736C31.9399 55.6447 32.6743 54.4117 34.0571 53.5706C34.2901 53.43 34.35 53.3258 34.2797 53.0537C33.8722 51.4795 34.2419 50.0889 35.3708 48.9249C36.5479 47.7114 37.7471 46.5174 38.9476 45.3248C40.1572 44.1217 41.6037 43.7532 43.2456 44.1829C43.4683 44.2415 43.549 44.205 43.6584 44.0162C44.5412 42.485 45.8745 41.7533 47.64 41.7689C49.1856 41.7832 50.7311 41.7911 52.2766 41.7663C54.0578 41.7377 55.4237 42.4382 56.326 43.9837C56.4484 44.1946 56.563 44.1842 56.7518 44.1347C58.408 43.6998 59.8298 44.1243 61.0355 45.3196C61.431 45.7123 61.8258 46.1055 62.2206 46.4987L62.2227 46.5008L62.2232 46.5013L62.2237 46.5018C62.9575 47.2325 63.6911 47.9632 64.4287 48.6906C65.6812 49.9262 66.1226 51.3871 65.663 53.0953C65.6031 53.3154 65.6552 53.4039 65.8414 53.512C67.3726 54.3961 68.0965 55.7333 68.0796 57.4975C68.064 59.0756 68.0666 60.6537 68.0783 62.2317C68.0913 63.9556 67.3791 65.2733 65.8948 66.1522C65.6786 66.2798 65.6422 66.3826 65.7164 66.6079C65.8505 67.0115 65.9065 67.4373 65.8739 67.8591C65.8505 68.1482 65.9755 68.1664 66.2047 68.1664C67.7048 68.1624 69.205 68.1624 70.7052 68.1623H70.7096C71.648 68.1623 72.5864 68.1622 73.5248 68.1612C74.2734 68.1612 74.6862 67.6899 75 67.0883ZM38.6717 54.4328L38.6704 54.4312L38.6688 54.4293C38.2922 53.9593 37.9257 53.5019 37.5583 53.0446C36.8448 52.1579 36.876 51.5563 37.6781 50.7504L38.4979 49.9273C39.3154 49.1063 40.133 48.2854 40.9527 47.4666C41.6311 46.7896 42.2652 46.7492 43.0243 47.3429C43.6091 47.7999 44.1892 48.2616 44.7872 48.7375C45.0785 48.9694 45.3741 49.2047 45.6766 49.4444C45.7146 49.1139 45.7515 48.788 45.788 48.4654L45.788 48.465C45.8815 47.639 45.9726 46.8351 46.0737 46.0318C46.1883 45.1204 46.6492 44.7089 47.5632 44.705C49.1908 44.6959 50.817 44.6959 52.4446 44.705C53.3573 44.7102 53.8144 45.1204 53.9289 46.037C54.0295 46.8394 54.1202 47.6431 54.2144 48.4788C54.2484 48.7796 54.2828 49.0845 54.3183 49.3949C54.6134 49.1585 54.9003 48.929 55.182 48.7035L55.1883 48.6985C55.6164 48.3559 56.0326 48.0228 56.4484 47.6893C56.5197 47.6322 56.59 47.574 56.6603 47.5158L56.6605 47.5155C56.7905 47.4079 56.9205 47.3002 57.0565 47.1997C57.6502 46.7635 58.3116 46.7674 58.8351 47.2765C60.0837 48.49 61.3168 49.7192 62.5355 50.9626C63.0433 51.4808 63.0446 52.1748 62.5772 52.7802C62.2097 53.2547 61.8349 53.7235 61.4601 54.1924C61.2054 54.511 60.9506 54.8296 60.6983 55.1499C60.678 55.1754 60.6548 55.1996 60.6311 55.2241L60.6311 55.2241C60.5546 55.3035 60.4743 55.3868 60.4783 55.5341C61.443 55.642 62.4051 55.7499 63.3672 55.8578L63.3714 55.8583L63.4291 55.8646C63.5872 55.8819 63.7461 55.8993 63.904 55.926C64.7203 56.0614 65.1396 56.5327 65.1435 57.3491C65.1513 59.0092 65.1513 60.668 65.1435 62.3281C65.1396 63.1809 64.6735 63.6783 63.8193 63.7772C63.0807 63.8622 62.3421 63.9478 61.5813 64.036L61.581 64.036L60.4535 64.1666L60.8674 64.6817C61.4101 65.3571 61.9359 66.0114 62.46 66.6665C63.1501 67.531 63.1188 68.1417 62.3402 68.9268C61.2634 70.0127 60.1853 71.0973 59.1033 72.1793C58.3598 72.9228 57.7322 72.9553 56.9185 72.3069C56.4653 71.9457 56.0117 71.5853 55.5497 71.2183L55.5485 71.2172C55.1482 70.8991 54.7416 70.5761 54.3235 70.2432C54.2799 70.6199 54.2381 70.9887 54.1968 71.352L54.1968 71.3525C54.106 72.152 54.0182 72.925 53.9224 73.6975C53.8157 74.5529 53.3144 74.993 52.4511 74.9956C50.8079 75.0008 49.1647 75.0021 47.5203 74.9956C46.6908 74.9917 46.1804 74.5412 46.0789 73.7183C45.9855 72.9652 45.9005 72.2109 45.8129 71.4341L45.8129 71.434C45.771 71.0625 45.7286 70.6859 45.6844 70.3018L45.654 70.3261L45.6516 70.328C45.0035 70.847 44.3863 71.3413 43.7691 71.8343C43.6868 71.9 43.6053 71.9666 43.5238 72.0331C43.3278 72.1931 43.1321 72.3528 42.9279 72.5009C42.3485 72.9202 41.6558 72.9006 41.148 72.4045C39.9137 71.2002 38.6898 69.9841 37.4815 68.7536C36.9489 68.2107 36.9463 67.5232 37.4346 66.8982C37.9237 66.2713 38.4205 65.6502 38.9352 65.0066L38.9354 65.0064L38.9362 65.0054C39.1556 64.731 39.3783 64.4526 39.6051 64.1679C39.0157 64.1008 38.4435 64.036 37.8799 63.9721L37.8685 63.9708L37.8544 63.9692C37.2888 63.9051 36.7316 63.842 36.1742 63.7786C35.3201 63.6809 34.8591 63.1835 34.8552 62.3255C34.8487 60.6823 34.85 59.0391 34.8552 57.3947C34.8578 56.5327 35.2563 56.0444 36.1 55.9312C36.8793 55.8273 37.6604 55.7425 38.4793 55.6537L38.4794 55.6537L38.4797 55.6536C38.8305 55.6156 39.1882 55.5767 39.5556 55.5354C39.2519 55.1568 38.9589 54.7912 38.6717 54.4328ZM44.3875 59.8516C44.3914 62.9478 46.907 65.4556 50.0072 65.453C53.1061 65.4504 55.6255 62.9296 55.6164 59.8399C55.6086 56.7489 53.0735 54.2164 49.9941 54.2242C46.9083 54.232 44.3849 56.7658 44.3875 59.8516ZM47.3184 59.8516C47.321 61.3268 48.5072 62.5143 49.9837 62.5221C51.4837 62.5312 52.6907 61.3307 52.6842 59.8386C52.6777 58.3686 51.4863 57.1681 50.0189 57.1538C48.545 57.1395 47.3158 58.3673 47.3184 59.8516Z" fill="#141414"/>
<defs>
<linearGradient id="paint0_linear_77_944" x1="50" y1="0" x2="50" y2="100" gradientUnits="userSpaceOnUse">
<stop stop-color="#60F9D8"/>
<stop offset="1" stop-color="#34E5F3"/>
</linearGradient>
</defs>
</svg>
