<svg width="30" height="16" viewBox="0 0 30 16" fill="none" xmlns="http://www.w3.org/2000/svg">
<path fill-rule="evenodd" clip-rule="evenodd" d="M8 1C8 0.447715 8.44772 0 9 0H29C29.5523 0 30 0.447715 30 1C30 1.55228 29.5523 2 29 2H9C8.44772 2 8 1.55228 8 1ZM0 8C0 7.44772 0.447715 7 1 7H29C29.5523 7 30 7.44772 30 8C30 8.55229 29.5523 9 29 9H1C0.447716 9 0 8.55229 0 8ZM15 14C14.4477 14 14 14.4477 14 15C14 15.5523 14.4477 16 15 16H29C29.5523 16 30 15.5523 30 15C30 14.4477 29.5523 14 29 14H15Z" fill="white"/>
</svg>
